<svg xmlns="http://www.w3.org/2000/svg" xmlns:xlink="http://www.w3.org/1999/xlink" viewBox="360 0 660 660">
  <defs>
    <style>
      .cls-1 {
        fill: none;
      }

      .cls-2 {
        fill: #fff;
      }

      .cls-3 {
        fill: #231f20;
      }

      .cls-4 {
        fill: #ed1c24;
      }

      .cls-5 {
        fill: #fbb040;
      }

      .cls-6 {
        isolation: isolate;
      }

      .cls-7 {
        fill: #414042;
      }

      .cls-8 {
        fill: #d49f75;
      }

      .cls-9 {
        fill: #dfae78;
      }

      .cls-10 {
        fill: #de7971;
      }

      .cls-11 {
        clip-path: url(#clip-path);
      }

      .cls-12 { /* Shirt background-color */
        fill: #00b8a2;
      }

      .cls-13 {
        fill: url(#New_Pattern);
      }

      .cls-14 {
        fill: #333132;
      }

      .cls-15 {
        mix-blend-mode: multiply;
      }

      .cls-16 {
        fill: #bcbec0;
      }
    </style>
    <clipPath id="clip-path" transform="translate(333.43 -65.7)">
      <path id="shirt-outline" class="cls-1" d="M500.16,672.6c-3.32-6.76-22.3-25.36-49.47-1.61l-.19.16a1.06,1.06,0,0,0-.2.17v.21a21.68,21.68,0,0,1,.05,2.22c0,1.29,0,3,0,5.15,0,.28,0,.59,0,.9v.48c0,1.6,0,3.43-.06,5.44v.22a136.9,136.9,0,0,1-6.53,35.93H287.06c0-.19,0-.36-.05-.54a4.75,4.75,0,0,1,0,.54h-7.5A138.52,138.52,0,0,1,273,686v-.24c-.07-2-.12-3.83-.07-5.44v-.48a7,7,0,0,1,0-.92c0-2.09,0-3.83,0-5.1,0-1.83,0-2.2.05-2.31v-.14h0c-.12-.13-.25-.22-.37-.33-27.18-23.75-46.15-5.15-49.48,1.61,0-47.6,1.47-108.61,81.7-145a3.73,3.73,0,0,1,0-.57c-.22-12.09-.55-18.08-.55-18.08s39.83,29.59,59.72,29.59S419.19,509,419.19,509s-.18,6-.4,18.08a4.32,4.32,0,0,1,0,.5C499.2,563.9,500.16,625,500.16,672.6Z"/>
    </clipPath>
    <pattern id="New_Pattern" data-name="New Pattern" x="333.43" y="-65.7" width="76.82" height="125.3" patternUnits="userSpaceOnUse" viewBox="0 0 76.82 125.3">
      <rect class="cls-1" width="76.82" height="125.3"/>
      <g>
        <g>
          <path class="cls-2" d="M75.54,111.91c0,.4-.21.72-.46.72s-.47-.32-.47-.72.21-.71.47-.71S75.54,111.52,75.54,111.91Z"/>
          <path class="cls-2" d="M77,111.2c0,.39-.21.71-.47.71s-.46-.32-.46-.71.2-.72.46-.72S77,110.8,77,111.2Z"/>
          <path class="cls-2" d="M80.42,112.76a3.29,3.29,0,0,1,0,.54c0,.09,0,.19-.07.29a3.08,3.08,0,0,1-.35.76,2.42,2.42,0,0,1-.27.36,2.16,2.16,0,0,1-.25.27,4.54,4.54,0,0,1-.48.39,3.26,3.26,0,0,1-.4.24,4.61,4.61,0,0,1-.51.22,4.34,4.34,0,0,1-1.5.26,4.27,4.27,0,0,1-2.53-.81,3.09,3.09,0,0,1-.39-.33,3.81,3.81,0,0,1-.37-.43,3,3,0,0,1-.59-1.76,3.94,3.94,0,0,1,7.76-.14Zm-4.34-1.56c0,.39.2.71.46.71s.47-.32.47-.71-.21-.72-.47-.72S76.08,110.8,76.08,111.2Zm-1,1.43c.25,0,.46-.32.46-.72s-.21-.71-.46-.71-.47.32-.47.71S74.82,112.63,75.08,112.63ZM78,113.88v0a1,1,0,0,0-.2-.54,1.59,1.59,0,0,0-1.27-.57,1.76,1.76,0,0,0-.46.06h0a1.45,1.45,0,0,0-.66.35h0a1,1,0,0,0-.29.43.81.81,0,0,0,0,.31A1.33,1.33,0,0,0,76.54,115a1.49,1.49,0,0,0,1.37-.75A.91.91,0,0,0,78,113.88Zm.46-2c0-.39-.2-.71-.46-.71s-.47.32-.47.71.21.72.47.72S78.47,112.31,78.47,111.91Z"/>
        </g>
        <path class="cls-3" d="M81.31,112.76a3.91,3.91,0,0,1-1.12,2.71h0a3.07,3.07,0,0,1-.26.25s0,0,0,0a3.52,3.52,0,0,0-.39.31h0a4.21,4.21,0,0,0-.49.53c-1.4,2.6-2.93,6.19-2.81,9.3h0a4.33,4.33,0,0,1-.13,1.58,8.76,8.76,0,0,1-4.6,6c2.32,3.64.83,10.19.29,12.53l-.33-.55-.33-.57c1.12-5.34.95-9.07-.51-11.13a4.16,4.16,0,0,1-.91.1,4.2,4.2,0,0,1-1.92-.48l-.57.13a8.06,8.06,0,0,0-2.23,1l-.08-.14a2.13,2.13,0,0,0-.16-.25c-.09-.12-.18-.24-.28-.35a9,9,0,0,1,2.33-1,9.34,9.34,0,0,1-2.06-2.66l.39-.21.39-.21c1.24,2.29,2.74,3.42,4.38,3.33a3.57,3.57,0,0,0,.56-.07l.2,0A6.45,6.45,0,0,0,74,130.19a8.28,8.28,0,0,0,1.24-2.89,3.74,3.74,0,0,0,.13-1.35v0c-.1-2.51.75-5.53,2.51-9a.91.91,0,0,1,.07-.14l-.13,0A5.06,5.06,0,0,1,77,117l-.46,0a5.25,5.25,0,0,1-2.75-.77c-1.18,4.66-3.36,7.34-6.37,7.81a5,5,0,0,0,.89-.68,3,3,0,0,0,.61-.76c2.22-1.24,3.43-4.14,4.1-7a4.09,4.09,0,0,1-.93-1.34h0a3.64,3.64,0,0,1-.32-1.5,3.69,3.69,0,0,1,.32-1.51,4.78,4.78,0,0,1,4.45-2.72A4.53,4.53,0,0,1,81.31,112.76Zm-.94.54a3.29,3.29,0,0,0,0-.54v-.14a3.94,3.94,0,0,0-7.76.14,3,3,0,0,0,.59,1.76,3.81,3.81,0,0,0,.37.43,3.09,3.09,0,0,0,.39.33,4.27,4.27,0,0,0,2.53.81,4.34,4.34,0,0,0,1.5-.26,4.61,4.61,0,0,0,.51-.22,3.26,3.26,0,0,0,.4-.24,4.54,4.54,0,0,0,.48-.39,2.16,2.16,0,0,0,.25-.27,2.42,2.42,0,0,0,.27-.36,3.08,3.08,0,0,0,.35-.76C80.33,113.49,80.35,113.39,80.37,113.3Z"/>
        <g>
          <path class="cls-2" d="M77.84,116.94c-1.76,3.46-2.61,6.48-2.51,9a5.41,5.41,0,0,1-.12,1.37A8.28,8.28,0,0,1,74,130.19a6.45,6.45,0,0,1-3.32,2.68l-.2,0a3.57,3.57,0,0,1-.56.07c-1.64.09-3.14-1-4.38-3.33l-.39.21-.39.21a9.34,9.34,0,0,0,2.06,2.66,9,9,0,0,0-2.33,1A3.8,3.8,0,0,0,59.7,133l-5.6,3.3a9.36,9.36,0,0,0-2.18-4.84,8.67,8.67,0,0,0-6.1-3.17l-.07.88a7.89,7.89,0,0,1,5.49,2.86,8.27,8.27,0,0,1,2,4.77,2.87,2.87,0,0,1,0,.42,1.77,1.77,0,0,1-.08.4h0a2.62,2.62,0,0,1-1.27,1.55,2.86,2.86,0,0,1-.78.3l-.31,0a2.22,2.22,0,0,1-2.42-1.77c-.51-1.6-2.07-1.82-3.63-2l-.27,0-.18,0-.44,0a4.22,4.22,0,0,1-2.93-1.14,4.93,4.93,0,0,1-.67-3.63c.3-3.13,1.38-5.61,3.14-7.17a7,7,0,0,1,1.16-.84.8.8,0,0,1,.16-.08,3.92,3.92,0,0,0,.27.33,3.22,3.22,0,0,0,.43.39,3.72,3.72,0,0,0,.45.33c1.89,1.26,5.32,2.16,9.35,2.34a3.17,3.17,0,1,0,3,0c3.91-.18,7.26-1,9.18-2.23,3-.47,5.19-3.15,6.37-7.81a5.25,5.25,0,0,0,2.75.77l.46,0a5.06,5.06,0,0,0,.78-.12l.13,0A.91.91,0,0,0,77.84,116.94Z"/>
          <path class="cls-3" d="M54.13,137.06a2.44,2.44,0,0,1,0,.27A3.61,3.61,0,0,1,51,140.41l-.12,0-.38,0a3.11,3.11,0,0,1-3-2.41c-.34-1-1.41-1.22-3.14-1.38h0l-.47,0-.47-.05a4.67,4.67,0,0,1-3.2-1.42c-.77-.93-1.06-2.33-.87-4.28.22-2.37,1-5.64,3.47-7.79a7.59,7.59,0,0,1,1.49-1,1.77,1.77,0,0,0,.15.42.56.56,0,0,0,.09.17,1,1,0,0,0,.14.22.8.8,0,0,0-.16.08,7,7,0,0,0-1.16.84c-1.76,1.56-2.84,4-3.14,7.17a4.93,4.93,0,0,0,.67,3.63,4.22,4.22,0,0,0,2.93,1.14l.44,0,.18,0,.27,0c1.56.15,3.12.37,3.63,2a2.22,2.22,0,0,0,2.42,1.77l.31,0a2.86,2.86,0,0,0,.78-.3,2.62,2.62,0,0,0,1.27-1.55h0a1.77,1.77,0,0,0,.08-.4,2.87,2.87,0,0,0,0-.42,8.27,8.27,0,0,0-2-4.77,7.89,7.89,0,0,0-5.49-2.86l.07-.88a8.67,8.67,0,0,1,6.1,3.17,9.36,9.36,0,0,1,2.18,4.84A4.72,4.72,0,0,1,54.13,137.06Z"/>
        </g>
        <g>
          <path class="cls-3" d="M51.05,117.61a.12.12,0,0,1-.11.14,10,10,0,0,1-1.23.1H49.5a11.62,11.62,0,0,1-4.48-.92.13.13,0,0,1-.06-.17.13.13,0,0,1,.16-.07,11.08,11.08,0,0,0,5.78.81.16.16,0,0,1,.13.06S51,117.59,51.05,117.61Z"/>
          <path class="cls-4" d="M69.16,121.66a1.91,1.91,0,0,1-.24.92,3,3,0,0,1-.61.76,5,5,0,0,1-.89.68c-1.92,1.2-5.27,2-9.18,2.23-.5,0-1,0-1.52,0s-1,0-1.51,0c-4-.18-7.46-1.08-9.35-2.34a3.72,3.72,0,0,1-.45-.33,3.22,3.22,0,0,1-.43-.39,3.92,3.92,0,0,1-.27-.33,1,1,0,0,1-.14-.22.56.56,0,0,1-.09-.17,1.77,1.77,0,0,1-.15-.42,1.74,1.74,0,0,1,0-.39,2.09,2.09,0,0,1,.55-1.35A14.31,14.31,0,0,0,47.09,122h0a16.6,16.6,0,0,0,3,1.42l.74.25h0c.53.17,1.07.31,1.63.44h0a21,21,0,0,0,2.91.41h0c.45,0,.9,0,1.35,0a18,18,0,0,0,2.1-.11h0a18.37,18.37,0,0,0,2.92-.53,14.86,14.86,0,0,0,1.64-.51h0a15.63,15.63,0,0,0,5.23-3.11A2.08,2.08,0,0,1,69.16,121.66Z"/>
        </g>
        <g>
          <path class="cls-2" d="M62.47,102.69l-.14,0h0Z"/>
          <path class="cls-2" d="M68.64,105.22a10.33,10.33,0,0,0-.79-.67A16,16,0,0,0,63,102c-.42-.14-.86-.27-1.31-.39,1.57-3.42,3.57-6.69,4.5-6.69,0,0,.18,0,.35.31A15.38,15.38,0,0,1,68.64,105.22Z"/>
          <path class="cls-3" d="M62.62,102.72l0,0-.27-.09h0l.14,0Z"/>
        </g>
        <g>
          <path class="cls-2" d="M52.09,101.48q-.66.17-1.29.36a16.67,16.67,0,0,0-4.81,2.4c-.29.22-.58.45-.85.69a15.33,15.33,0,0,1,2.14-9.75c.17-.31.3-.31.35-.31C48.55,94.87,50.52,98.09,52.09,101.48Z"/>
          <path class="cls-3" d="M71.77,112.76a3.64,3.64,0,0,0,.32,1.5h0a10.71,10.71,0,0,1-3.47,6,15.63,15.63,0,0,1-5.23,3.11h0a14.86,14.86,0,0,1-1.64.51,18.37,18.37,0,0,1-2.92.53h0a18,18,0,0,1-2.1.11c-.45,0-.9,0-1.35,0h0a21,21,0,0,1-2.91-.41h0c-.56-.13-1.1-.27-1.63-.44h0l-.74-.25a16.6,16.6,0,0,1-3-1.42h0a14.31,14.31,0,0,1-2.26-1.69,10.25,10.25,0,0,1-3.59-7.55,10.06,10.06,0,0,1,3.09-7.07A16.21,16.21,0,0,1,46.5,94.75,1.27,1.27,0,0,1,47.63,94c.64,0,1.74.45,3.86,4.34.59,1.08,1.12,2.18,1.48,3a20,20,0,0,1,3.75-.35,19.33,19.33,0,0,1,4.08.42c.37-.8.91-1.92,1.52-3C64.43,94.43,65.54,94,66.18,94a1.27,1.27,0,0,1,1.13.77A16.3,16.3,0,0,1,69.44,106a10.38,10.38,0,0,1,2.65,5.23A3.69,3.69,0,0,0,71.77,112.76Zm-10.09-11.2c.45.12.89.25,1.31.39a16,16,0,0,1,4.86,2.6,10.33,10.33,0,0,1,.79.67,15.38,15.38,0,0,0-2.11-10c-.17-.31-.3-.31-.35-.31C65.25,94.87,63.25,98.14,61.68,101.56Zm-16.54,3.37c.27-.24.56-.47.85-.69a16.67,16.67,0,0,1,4.81-2.4q.63-.2,1.29-.36c-1.57-3.39-3.54-6.61-4.46-6.61-.05,0-.18,0-.35.31A15.33,15.33,0,0,0,45.14,104.93Zm26.18,7.83a8.91,8.91,0,0,0-2.06-5.6c-.12-.15-.25-.3-.38-.44a10.22,10.22,0,0,0-1.1-1.08,11.42,11.42,0,0,0-1.15-.9h0a15.84,15.84,0,0,0-4-2l0,0-.15,0-.14,0h0c-.47-.15-1-.28-1.45-.39l-.45-.09a19.19,19.19,0,0,0-7.08-.06l-.45.08a16.48,16.48,0,0,0-1.71.44A15.35,15.35,0,0,0,46,105.32a12,12,0,0,0-1.17,1.07,5.14,5.14,0,0,0-.38.42,9,9,0,0,0-2.36,6,9.4,9.4,0,0,0,3.33,6.94,16.5,16.5,0,0,0,9.93,3.94h0c.44,0,.88,0,1.33,0a17.76,17.76,0,0,0,2.08-.11h0A16.25,16.25,0,0,0,68,119.7,9.38,9.38,0,0,0,71.32,112.76Z"/>
        </g>
        <path class="cls-4" d="M50.8,101.84a16.67,16.67,0,0,0-4.81,2.4,10.88,10.88,0,0,1,1.56-5.54C48.28,97.38,49.79,99.87,50.8,101.84Z"/>
        <path class="cls-4" d="M67.85,104.55A16,16,0,0,0,63,102c1-2,2.57-4.59,3.31-3.25A10.76,10.76,0,0,1,67.85,104.55Z"/>
        <g>
          <path class="cls-2" d="M51.63,116.86a.12.12,0,0,1-.13.12h0a11.32,11.32,0,0,1-5.68-1.85.12.12,0,0,1,0-.17.13.13,0,0,1,.18,0,11.14,11.14,0,0,0,5.55,1.81A.12.12,0,0,1,51.63,116.86Z"/>
          <path class="cls-2" d="M52.05,116.2a.11.11,0,0,1-.12.09h0a11.35,11.35,0,0,1-5.14-3.05.14.14,0,0,1,0-.18.13.13,0,0,1,.18,0,11.07,11.07,0,0,0,5,3A.13.13,0,0,1,52.05,116.2Z"/>
          <path class="cls-2" d="M52.49,111.2a1.12,1.12,0,1,1-1.12-1.12A1.12,1.12,0,0,1,52.49,111.2Z"/>
          <circle class="cls-2" cx="62.42" cy="111.2" r="1.12"/>
          <path class="cls-2" d="M67.17,113.24A11.35,11.35,0,0,1,62,116.29h0a.11.11,0,0,1-.12-.09A.13.13,0,0,1,62,116a11.07,11.07,0,0,0,5-3,.13.13,0,0,1,.18,0A.14.14,0,0,1,67.17,113.24Z"/>
          <path class="cls-2" d="M68.11,115.13A11.35,11.35,0,0,1,62.43,117h0a.13.13,0,1,1,0-.25A11.14,11.14,0,0,0,68,114.92a.13.13,0,0,1,.18,0A.12.12,0,0,1,68.11,115.13Z"/>
          <path class="cls-2" d="M62.62,102.72l0,0-.27-.09h0l.14,0Z"/>
          <path class="cls-3" d="M62.62,102.72l0,0-.27-.09h0l.14,0Zm0,0,0,0-.27-.09h0l.14,0Z"/>
          <path class="cls-2" d="M71.32,112.76A9.38,9.38,0,0,1,68,119.7a16.25,16.25,0,0,1-9.18,3.87h0a17.76,17.76,0,0,1-2.08.11c-.45,0-.89,0-1.33,0h0a16.5,16.5,0,0,1-9.93-3.94,9.4,9.4,0,0,1-3.33-6.94,9,9,0,0,1,2.36-6,5.14,5.14,0,0,1,.38-.42A12,12,0,0,1,46,105.32a15.35,15.35,0,0,1,5.15-2.67,16.48,16.48,0,0,1,1.71-.44l.45-.08a19.19,19.19,0,0,1,7.08.06l.45.09c.49.11,1,.24,1.45.39h0l.27.09a15.84,15.84,0,0,1,4,2h0a11.42,11.42,0,0,1,1.15.9,10.22,10.22,0,0,1,1.1,1.08c.13.14.26.29.38.44A8.91,8.91,0,0,1,71.32,112.76Zm-20.27,4.85s0,0,0,0a.16.16,0,0,0-.13-.06,11.08,11.08,0,0,1-5.78-.81.13.13,0,0,0-.16.07.13.13,0,0,0,.06.17,11.62,11.62,0,0,0,4.48.92h.21a10,10,0,0,0,1.23-.1A.12.12,0,0,0,51.05,117.61Zm.58-.75a.12.12,0,0,0-.12-.13A11.14,11.14,0,0,1,46,114.92a.13.13,0,0,0-.18,0,.12.12,0,0,0,0,.17A11.32,11.32,0,0,0,51.5,117h0A.12.12,0,0,0,51.63,116.86ZM52,116a11.07,11.07,0,0,1-5-3,.13.13,0,0,0-.18,0,.14.14,0,0,0,0,.18,11.35,11.35,0,0,0,5.14,3.05h0a.11.11,0,0,0,.12-.09A.13.13,0,0,0,52,116Zm.53-4.84a1.12,1.12,0,1,0-1.12,1.12A1.12,1.12,0,0,0,52.49,111.2Zm6.38,5.92V117h-.26a.31.31,0,0,1,0,.1v0a.88.88,0,0,1-1.75,0v-.05l0,0c.75-.6,3.31-2.81-.16-2.82h0c-1.33,0-1.77.33-1.77.77,0,.7,1.15,1.68,1.61,2l.05,0v0a.88.88,0,0,1-1.76,0V117H54.6a.41.41,0,0,0,0,.11h0a1.13,1.13,0,0,0,2.14.5,1.14,1.14,0,0,0,1,.63A1.13,1.13,0,0,0,58.87,117.12Zm3.55-4.8a1.12,1.12,0,1,0-1.12-1.12A1.12,1.12,0,0,0,62.42,112.32Zm-.39,4a11.35,11.35,0,0,0,5.14-3.05.14.14,0,0,0,0-.18.13.13,0,0,0-.18,0,11.07,11.07,0,0,1-5,3,.13.13,0,0,0-.09.16.11.11,0,0,0,.12.09Zm.4.69a11.35,11.35,0,0,0,5.68-1.85.12.12,0,0,0,0-.17.13.13,0,0,0-.18,0,11.14,11.14,0,0,1-5.55,1.81.13.13,0,1,0,0,.25Zm6.54-.22a.14.14,0,0,0-.16-.07,11.08,11.08,0,0,1-5.78.81.13.13,0,0,0-.15.11v0h0a.12.12,0,0,0,.11.1l.63.07.8,0a11.55,11.55,0,0,0,4.48-.92A.12.12,0,0,0,69,116.76Z"/>
        </g>
        <path class="cls-3" d="M58.87,117.12a1.13,1.13,0,0,1-1.13,1.13,1.14,1.14,0,0,1-1-.63,1.13,1.13,0,0,1-2.14-.5h0a.41.41,0,0,1,0-.11h.25v.12a.88.88,0,0,0,1.76,0v0l-.05,0c-.46-.37-1.61-1.35-1.61-2,0-.44.44-.77,1.77-.77h0c3.47,0,.91,2.22.16,2.82l0,0v.05a.88.88,0,0,0,1.75,0v0a.31.31,0,0,0,0-.1h.26Z"/>
        <g>
          <path class="cls-4" d="M78,113.88a.91.91,0,0,1-.1.4,1.49,1.49,0,0,1-1.37.75,1.33,1.33,0,0,1-1.46-1.15.81.81,0,0,1,0-.31,1,1,0,0,1,.29-.43h0a1.45,1.45,0,0,1,.66-.35h0a1.76,1.76,0,0,1,.46-.06,1.59,1.59,0,0,1,1.27.57,1,1,0,0,1,.2.54Z"/>
          <path class="cls-4" d="M77,111.2c0,.39-.21.71-.47.71s-.46-.32-.46-.71.2-.72.46-.72S77,110.8,77,111.2Z"/>
          <path class="cls-4" d="M75.54,111.91c0,.4-.21.72-.46.72s-.47-.32-.47-.72.21-.71.47-.71S75.54,111.52,75.54,111.91Z"/>
        </g>
        <circle class="cls-3" cx="62.42" cy="111.2" r="1.12"/>
        <path class="cls-3" d="M52.49,111.2a1.12,1.12,0,1,1-1.12-1.12A1.12,1.12,0,0,1,52.49,111.2Z"/>
        <g>
          <path class="cls-3" d="M68.9,116.93a11.55,11.55,0,0,1-4.48.92l-.8,0-.63-.07a.12.12,0,0,1-.11-.1h0v0a.13.13,0,0,1,.15-.11,11.08,11.08,0,0,0,5.78-.81.14.14,0,0,1,.16.07A.12.12,0,0,1,68.9,116.93Z"/>
          <path class="cls-3" d="M68.11,115.13A11.35,11.35,0,0,1,62.43,117h0a.13.13,0,1,1,0-.25A11.14,11.14,0,0,0,68,114.92a.13.13,0,0,1,.18,0A.12.12,0,0,1,68.11,115.13Z"/>
          <path class="cls-3" d="M67.17,113.24A11.35,11.35,0,0,1,62,116.29h0a.11.11,0,0,1-.12-.09A.13.13,0,0,1,62,116a11.07,11.07,0,0,0,5-3,.13.13,0,0,1,.18,0A.14.14,0,0,1,67.17,113.24Z"/>
        </g>
        <g>
          <path class="cls-3" d="M51.63,116.86a.12.12,0,0,1-.13.12h0a11.32,11.32,0,0,1-5.68-1.85.12.12,0,0,1,0-.17.13.13,0,0,1,.18,0,11.14,11.14,0,0,0,5.55,1.81A.12.12,0,0,1,51.63,116.86Z"/>
          <path class="cls-3" d="M52.05,116.2a.11.11,0,0,1-.12.09h0a11.35,11.35,0,0,1-5.14-3.05.14.14,0,0,1,0-.18.13.13,0,0,1,.18,0,11.07,11.07,0,0,0,5,3A.13.13,0,0,1,52.05,116.2Z"/>
        </g>
      </g>
      <g>
        <g>
          <path class="cls-3" d="M3.37,115.47a.89.89,0,0,1-.26.25A3.07,3.07,0,0,0,3.37,115.47Z"/>
          <g>
            <path class="cls-2" d="M.19,111.2c0,.39-.21.71-.47.71s-.47-.32-.47-.71.21-.72.47-.72S.19,110.8.19,111.2Z"/>
            <path class="cls-2" d="M1.65,111.91c0,.4-.21.72-.46.72s-.47-.32-.47-.72.21-.71.47-.71S1.65,111.52,1.65,111.91Z"/>
            <path class="cls-3" d="M3.11,115.72a4.23,4.23,0,0,1-.41.33,2.79,2.79,0,0,1,.39-.31Z"/>
            <path class="cls-2" d="M3.6,112.76a3.29,3.29,0,0,1-.05.54c0,.09,0,.19-.07.29a2.78,2.78,0,0,1-.36.76,1.83,1.83,0,0,1-.26.36,2.23,2.23,0,0,1-.26.27,3.6,3.6,0,0,1-.47.39,3.26,3.26,0,0,1-.4.24,4.77,4.77,0,0,1-.52.22,4.28,4.28,0,0,1-1.49.26,4.32,4.32,0,0,1-2.54-.81A3.9,3.9,0,0,1-3.2,115a3,3,0,0,1-.37-.43,3,3,0,0,1-.59-1.76,3.65,3.65,0,0,1,3.88-3.34,3.67,3.67,0,0,1,3.88,3.2ZM-.75,111.2c0,.39.21.71.47.71s.47-.32.47-.71-.21-.72-.47-.72S-.75,110.8-.75,111.2Zm-1,1.43c.26,0,.47-.32.47-.72s-.21-.71-.47-.71-.46.32-.46.71S-2,112.63-1.75,112.63Zm2.94,1.25a.06.06,0,0,0,0,0,.9.9,0,0,0-.2-.54,1.56,1.56,0,0,0-1.26-.57,1.76,1.76,0,0,0-.46.06h0a1.54,1.54,0,0,0-.67.35h0a1.07,1.07,0,0,0-.28.43.81.81,0,0,0-.06.31A1.34,1.34,0,0,0-.28,115a1.49,1.49,0,0,0,1.37-.75A.91.91,0,0,0,1.19,113.88Zm.46-2c0-.39-.21-.71-.46-.71s-.47.32-.47.71.21.72.47.72S1.65,112.31,1.65,111.91Z"/>
          </g>
          <path class="cls-3" d="M4.49,112.76a3.91,3.91,0,0,1-1.12,2.71h0a3.07,3.07,0,0,1-.26.25l0,0a2.79,2.79,0,0,0-.39.31h0a4.16,4.16,0,0,0-.48.53c-1.4,2.6-2.93,6.19-2.81,9.3h0a4.33,4.33,0,0,1-.13,1.58,8.78,8.78,0,0,1-4.6,6C-3,137.15-4.5,143.7-5,146l-.33-.55-.33-.57c1.12-5.34,1-9.07-.51-11.13a4.22,4.22,0,0,1-.91.1A4.27,4.27,0,0,1-9,133.41l-.56.13a8.06,8.06,0,0,0-2.23,1l-.08-.14c-.05-.09-.11-.17-.16-.25s-.18-.24-.28-.35a9,9,0,0,1,2.33-1,9.39,9.39,0,0,1-2.07-2.66l.39-.21.4-.21c1.24,2.29,2.74,3.42,4.38,3.33a3.57,3.57,0,0,0,.56-.07l.19,0a6.43,6.43,0,0,0,3.33-2.68,8.28,8.28,0,0,0,1.24-2.89A3.54,3.54,0,0,0-1.49,126v0c-.1-2.51.74-5.53,2.51-9l.06-.14-.12,0a5.26,5.26,0,0,1-.78.12l-.46,0A5.25,5.25,0,0,1-3,116.21c-1.18,4.66-3.36,7.34-6.37,7.81a5.34,5.34,0,0,0,.89-.68,3,3,0,0,0,.61-.76c2.21-1.24,3.43-4.14,4.1-7a4.28,4.28,0,0,1-.94-1.34h0a3.8,3.8,0,0,1-.31-1.5,3.85,3.85,0,0,1,.31-1.51,4.8,4.8,0,0,1,4.46-2.72A4.53,4.53,0,0,1,4.49,112.76Zm-.94.54a3.29,3.29,0,0,0,.05-.54v-.14a3.67,3.67,0,0,0-3.88-3.2,3.65,3.65,0,0,0-3.88,3.34,3,3,0,0,0,.59,1.76,3,3,0,0,0,.37.43,3.9,3.9,0,0,0,.38.33,4.32,4.32,0,0,0,2.54.81,4.28,4.28,0,0,0,1.49-.26,4.77,4.77,0,0,0,.52-.22,3.26,3.26,0,0,0,.4-.24A3.6,3.6,0,0,0,2.6,115a2.23,2.23,0,0,0,.26-.27,1.83,1.83,0,0,0,.26-.36,2.78,2.78,0,0,0,.36-.76C3.51,113.49,3.53,113.39,3.55,113.3Z"/>
          <path class="cls-2" d="M1,116.94c-1.77,3.46-2.61,6.48-2.51,9a5.41,5.41,0,0,1-.12,1.37,8.28,8.28,0,0,1-1.24,2.89,6.43,6.43,0,0,1-3.33,2.68l-.19,0a3.57,3.57,0,0,1-.56.07c-1.64.09-3.14-1-4.38-3.33l-.4.21-.39.21A9.39,9.39,0,0,0-10,132.74a9,9,0,0,0-2.33,1,3.8,3.8,0,0,0-4.76-.74l-5.6,3.3a9.36,9.36,0,0,0-2.18-4.84,8.69,8.69,0,0,0-6.1-3.17l-.07.88a7.89,7.89,0,0,1,5.49,2.86,8.27,8.27,0,0,1,2,4.77c0,.15,0,.29,0,.42a1.77,1.77,0,0,1-.08.4h0a2.63,2.63,0,0,1-1.28,1.55,2.8,2.8,0,0,1-.77.3l-.31,0a2.22,2.22,0,0,1-2.42-1.77c-.51-1.6-2.07-1.82-3.64-2l-.27,0-.17,0-.44,0a4.22,4.22,0,0,1-2.93-1.14,4.93,4.93,0,0,1-.67-3.63c.3-3.13,1.38-5.61,3.14-7.17a7,7,0,0,1,1.16-.84l.15-.08a4.09,4.09,0,0,0,.28.33,3.22,3.22,0,0,0,.43.39,3.07,3.07,0,0,0,.45.33c1.89,1.26,5.32,2.16,9.35,2.34A3.16,3.16,0,0,0-23.27,129a3.18,3.18,0,0,0,3.17,3.17A3.17,3.17,0,0,0-16.93,129a3.17,3.17,0,0,0-1.65-2.78c3.9-.18,7.25-1,9.18-2.23,3-.47,5.19-3.15,6.37-7.81A5.25,5.25,0,0,0-.28,117l.46,0a5.26,5.26,0,0,0,.78-.12l.12,0Z"/>
          <g>
            <path class="cls-4" d="M1.19,113.88a.91.91,0,0,1-.1.4A1.49,1.49,0,0,1-.28,115a1.34,1.34,0,0,1-1.47-1.15.81.81,0,0,1,.06-.31,1.07,1.07,0,0,1,.28-.43h0a1.54,1.54,0,0,1,.67-.35h0a1.76,1.76,0,0,1,.46-.06A1.56,1.56,0,0,1,1,113.3a.9.9,0,0,1,.2.54A.06.06,0,0,1,1.19,113.88Z"/>
            <path class="cls-4" d="M1.65,111.91c0,.4-.21.72-.46.72s-.47-.32-.47-.72.21-.71.47-.71S1.65,111.52,1.65,111.91Z"/>
            <path class="cls-4" d="M.19,111.2c0,.39-.21.71-.47.71s-.47-.32-.47-.71.21-.72.47-.72S.19,110.8.19,111.2Z"/>
          </g>
        </g>
        <g>
          <ellipse class="cls-4" cx="24.66" cy="123.92" rx="4.29" ry="3.36"/>
          <ellipse class="cls-4" cx="28.94" cy="118.18" rx="1.37" ry="2.1"/>
          <ellipse class="cls-4" cx="24.66" cy="116.08" rx="1.37" ry="2.1"/>
          <ellipse class="cls-4" cx="20.37" cy="118.18" rx="1.37" ry="2.1"/>
        </g>
      </g>
      <g>
        <g>
          <g>
            <path class="cls-2" d="M29.29,86.08,24.34,89l-.16-.28L24,88.43l-.36-.6-.16-.29-.17-.28,1.34-.79-1-1.68,2.25-1.33,1,1.68,1.35-.79.16.28.17.28.36.61.17.28h0Zm.6-3.86h0ZM24.4,90.13h0Zm.1-19.36-.22-.09Zm-2.82,6.77,1,1.68-1.13.66-1-1.68-1.92,1.13.17.28.17.28h0a1.19,1.19,0,0,1-.43,1.64l-.53.31a1.19,1.19,0,0,1-1.64-.42l-1-1.75A1.19,1.19,0,0,1,15.77,78l.54-.31a1.19,1.19,0,0,1,1.64.42h0l4.95-2.92.17.28.16.28.36.61Zm-3.8,10.1A7.3,7.3,0,0,1,4.27,84v-.81A21,21,0,0,1,6,74c1.72.16,2.8.33,3.13,1.38a3.13,3.13,0,0,0,3,2.41l.38,0,.12,0a3.76,3.76,0,0,0,.29,1.35,4.09,4.09,0,0,0,.23.47L16.92,86ZM14.74,75Z"/>
            <path class="cls-2" d="M36.8,64.64a5.33,5.33,0,0,0,.12-1.37v0A3.71,3.71,0,0,1,36.8,64.64Z"/>
            <circle class="cls-2" cx="18.31" cy="66.38" r="2.28"/>
            <path class="cls-3" d="M41.78,52.82a.89.89,0,0,1-.26.25A3.07,3.07,0,0,0,41.78,52.82Z"/>
            <path class="cls-3" d="M18.13,88.08l.28.47a8.71,8.71,0,0,1-6.84,3.6A8.21,8.21,0,0,1,3.38,84v-.81A22.52,22.52,0,0,1,5,73.91L5.5,74,6,74H6a21,21,0,0,0-1.71,9.14V84a7.3,7.3,0,0,0,13.61,3.68Z"/>
            <path class="cls-3" d="M18.86,89.32a.64.64,0,0,1-.11-.2Z"/>
          </g>
          <g>
            <path class="cls-2" d="M36.8,64.64a5.33,5.33,0,0,0,.12-1.37v0A3.71,3.71,0,0,1,36.8,64.64Z"/>
            <path class="cls-3" d="M36.8,64.64a5.33,5.33,0,0,0,.12-1.37v0A3.71,3.71,0,0,1,36.8,64.64Z"/>
          </g>
          <g>
            <path class="cls-2" d="M37.13,49.26c0,.4-.21.72-.46.72s-.47-.32-.47-.72.21-.72.47-.72S37.13,48.87,37.13,49.26Z"/>
            <path class="cls-2" d="M38.6,48.54c0,.4-.21.72-.47.72s-.47-.32-.47-.72.21-.71.47-.71S38.6,48.15,38.6,48.54Z"/>
            <path class="cls-2" d="M40.06,49.26c0,.4-.21.72-.46.72s-.47-.32-.47-.72.21-.72.47-.72S40.06,48.87,40.06,49.26Z"/>
            <path class="cls-3" d="M41.52,53.07a4.23,4.23,0,0,1-.41.33,3.52,3.52,0,0,1,.39-.31Z"/>
            <path class="cls-2" d="M42,50.1a3.1,3.1,0,0,1,0,.54,2.46,2.46,0,0,1-.07.29,3.15,3.15,0,0,1-.35.77,2.42,2.42,0,0,1-.27.36,3.31,3.31,0,0,1-.26.27,2.89,2.89,0,0,1-.47.38l-.4.25a4.77,4.77,0,0,1-.52.22,4.28,4.28,0,0,1-1.49.26,4.21,4.21,0,0,1-2.53-.82,3,3,0,0,1-.39-.32,5,5,0,0,1-.37-.43,3,3,0,0,1-.59-1.77,3.64,3.64,0,0,1,3.88-3.33A3.67,3.67,0,0,1,42,50Zm-4.35-1.56c0,.4.21.72.47.72s.47-.32.47-.72-.21-.71-.47-.71S37.66,48.15,37.66,48.54Zm-1,1.44c.25,0,.46-.32.46-.72s-.21-.72-.46-.72-.47.33-.47.72S36.41,50,36.67,50Zm2.93,1.24a0,0,0,0,0,0,0,.87.87,0,0,0-.2-.55,1.55,1.55,0,0,0-1.26-.56,2.31,2.31,0,0,0-.46.05h0a1.56,1.56,0,0,0-.66.36h0a1.07,1.07,0,0,0-.28.43.79.79,0,0,0,0,.3,1.33,1.33,0,0,0,1.46,1.15,1.5,1.5,0,0,0,1.37-.74A1,1,0,0,0,39.6,51.22Zm.46-2c0-.39-.21-.72-.46-.72s-.47.33-.47.72.21.72.47.72S40.06,49.66,40.06,49.26Z"/>
          </g>
          <g>
            <path class="cls-4" d="M29.89,82.22h0Z"/>
            <polygon class="cls-4" points="29.29 86.08 24.34 89 24.18 88.72 24.01 88.43 23.65 87.83 23.49 87.54 23.32 87.26 24.66 86.47 23.68 84.79 25.93 83.46 26.92 85.14 28.27 84.35 28.43 84.63 28.6 84.91 28.96 85.52 29.13 85.8 29.13 85.8 29.29 86.08"/>
          </g>
          <path class="cls-4" d="M16.92,86a5.62,5.62,0,1,1-5.43-7.09,5.43,5.43,0,0,1,1.4.18,4.09,4.09,0,0,0,.23.47Z"/>
          <g>
            <path class="cls-2" d="M32.71,82.27,27,72.6l-.44-.76a7.78,7.78,0,0,1,2.23-1l.57-.14a4.08,4.08,0,0,0,1.92.49,4.22,4.22,0,0,0,.91-.1C33.66,73.19,33.83,76.93,32.71,82.27Z"/>
            <path class="cls-3" d="M42.9,50.1a3.91,3.91,0,0,1-1.12,2.72h0a3.07,3.07,0,0,1-.26.25l0,0a3.52,3.52,0,0,0-.39.31h0a6.55,6.55,0,0,0-.48.54c-1.4,2.6-2.93,6.18-2.81,9.3h0a4.33,4.33,0,0,1-.13,1.58,8.78,8.78,0,0,1-4.6,6c2.32,3.64.83,10.19.29,12.53L33,82.83l-.33-.56c1.12-5.34.95-9.08-.51-11.13a4.22,4.22,0,0,1-.91.1,4.08,4.08,0,0,1-1.92-.49l-.57.14a7.78,7.78,0,0,0-2.23,1l-.08-.13c0-.09-.11-.17-.16-.25s-.18-.24-.28-.35a9.38,9.38,0,0,1,2.33-1,9.4,9.4,0,0,1-2.07-2.65l.4-.21L27.1,67c1.24,2.28,2.74,3.42,4.38,3.33a3.6,3.6,0,0,0,.56-.08l.2-.05a6.35,6.35,0,0,0,3.32-2.68,8.2,8.2,0,0,0,1.24-2.89,3.71,3.71,0,0,0,.13-1.34v0c-.1-2.5.75-5.52,2.51-9l.06-.13-.12,0a5.08,5.08,0,0,1-.78.13l-.46,0a5.17,5.17,0,0,1-2.75-.78C34.2,58.22,32,60.9,29,61.37a5.34,5.34,0,0,0,.89-.68,2.87,2.87,0,0,0,.61-.77c2.21-1.24,3.43-4.13,4.1-7a4.28,4.28,0,0,1-.94-1.34h0a3.85,3.85,0,0,1-.31-1.51,3.8,3.8,0,0,1,.31-1.5,4.8,4.8,0,0,1,4.46-2.72A4.52,4.52,0,0,1,42.9,50.1Zm-.94.54a3.1,3.1,0,0,0,0-.54V50a3.67,3.67,0,0,0-3.88-3.2,3.64,3.64,0,0,0-3.88,3.33,3,3,0,0,0,.59,1.77,5,5,0,0,0,.37.43,3,3,0,0,0,.39.32,4.21,4.21,0,0,0,2.53.82,4.28,4.28,0,0,0,1.49-.26,4.77,4.77,0,0,0,.52-.22l.4-.25a2.89,2.89,0,0,0,.47-.38,3.31,3.31,0,0,0,.26-.27,2.42,2.42,0,0,0,.27-.36,3.15,3.15,0,0,0,.35-.77A2.46,2.46,0,0,0,42,50.64Z"/>
          </g>
          <g>
            <circle class="cls-5" cx="18.31" cy="66.38" r="2.28"/>
            <path class="cls-3" d="M21.48,66.38A3.17,3.17,0,1,1,16.8,63.6c.5,0,1,0,1.51,0s1,0,1.52,0A3.16,3.16,0,0,1,21.48,66.38Zm-.89,0a2.28,2.28,0,1,0-2.28,2.27A2.28,2.28,0,0,0,20.59,66.38Z"/>
          </g>
          <g>
            <g>
              <polygon class="cls-5" points="21.68 77.54 22.67 79.22 21.55 79.88 20.55 78.2 18.64 79.33 18.29 78.72 23.23 75.81 23.59 76.41 21.68 77.54"/>
              <path class="cls-5" d="M29,85.52,24,88.43l-.36-.6,1.91-1.13-1-1.68,1.13-.66,1,1.68,1.91-1.13Z"/>
              <g>
                <path class="cls-3" d="M24.5,70.77l-.22-.09Zm0,0-.22-.09Z"/>
                <path class="cls-3" d="M32.53,89.43l-6.83,4a3.79,3.79,0,0,1-5.19-1.34l-1.65-2.79-.11-.2h0l-.34-.57-.28-.47-.25-.44-1-1.62-3.8-6.44a4.09,4.09,0,0,1-.23-.47,3.76,3.76,0,0,1-.29-1.35,3.52,3.52,0,0,0,.66-.15c0,.12,0,.24,0,.36s0,0,0,.08,0,0,0,.08,0,.06,0,.09,0,.14,0,.21l0,.11,0,.1s0,.08.05.13,0,0,0,0l0,.11a1.19,1.19,0,0,0,.08.16.3.3,0,0,0,0,.08s0,0,0,.08l.1.17h0L17.1,85l1.15,2,1.59,2.7.62,1,.62,1a3.13,3.13,0,0,0,4.29,1.11l1.67-1,4-2.36,1.17-.68a3.15,3.15,0,0,0,1.11-4.3l-.08-.13-.4-.67h0l-.33-.55h0l-6-10.14L26,72.23,25.92,72l-.12-.2-.06-.07,0-.07-.12-.14-.05-.06-.12-.12-.12-.11-.06,0-.07-.06L25,71.07,24.89,71l-.28-.16-.11,0-.22-.09-.12,0-.11,0-.11,0h-.07a.41.41,0,0,0-.16,0l-.17,0h-.33a3.11,3.11,0,0,0-1.58.43l-5.91,3.48a4.72,4.72,0,0,0,0-.74l5.6-3.31a3.8,3.8,0,0,1,4.76.75c.1.11.19.23.28.35s.11.16.16.25l.08.13.44.76,5.7,9.67.33.56.33.56.5.85A3.8,3.8,0,0,1,32.53,89.43Z"/>
              </g>
              <g>
                <path class="cls-5" d="M29.89,82.22h0ZM24.5,70.77l-.22-.09Z"/>
                <path class="cls-5" d="M32.2,88.87,31,89.55l-4,2.36-1.67,1a3.13,3.13,0,0,1-4.29-1.11l-.62-1-.62-1L18.25,87,17.1,85l-3.31-5.61h0l-.1-.17s0,0,0-.08a.3.3,0,0,1,0-.08,1.19,1.19,0,0,1-.08-.16l0-.11s0,0,0,0,0-.09-.05-.13l0-.1,0-.11c0-.07,0-.14,0-.21s0-.06,0-.09,0-.06,0-.08,0,0,0-.08,0-.24,0-.36a3.57,3.57,0,0,0,2.45-2.94c0-.08,0-.17,0-.26l5.91-3.48a3.11,3.11,0,0,1,1.58-.43h.33l.17,0a.41.41,0,0,1,.16,0h.07l.11,0,.11,0,.12,0,.22.09.11,0,.28.16.14.09.12.09.07.06.06,0,.12.11.12.12.05.06.12.14,0,.07.06.07.12.2.11.19.49.83,6,10.14h0l.33.55h0l.4.67.08.13A3.15,3.15,0,0,1,32.2,88.87Zm-11-8.31.13.22,2.26-1.33-.15-.25-.84-1.43L23.92,77h0a1.2,1.2,0,0,0,1.64.43l.53-.32a1.21,1.21,0,0,0,.43-1.64l-.9-1.53-.13-.22-.07-.1,0,0s0,0,0,0l0,0,0,0-.06,0a.1.1,0,0,0-.05,0h0l-.06,0-.07,0h0l0,0-.05,0-.07,0h0l-.08,0h-.32l-.1,0H24.2l-.08,0-.06,0h0l-.05,0-.13.07-.54.31a1.21,1.21,0,0,0-.42,1.65h0L18,78.16h0a1.19,1.19,0,0,0-1.64-.42l-.54.31a1.19,1.19,0,0,0-.42,1.64l1,1.75a1.19,1.19,0,0,0,1.64.42l.53-.31A1.19,1.19,0,0,0,19,79.9h0l1.34-.79Zm10.71,4-1-1.74-.05-.07-.05-.06-.09-.11,0,0,0,0a.18.18,0,0,1-.07,0h0a.1.1,0,0,0-.05,0,.05.05,0,0,0,0,0l-.07,0a.05.05,0,0,0,0,0l0,0h0l-.13,0-.07,0h0l-.1,0h-.36l-.13,0-.07,0-.07,0-.08,0-.53.32a1.2,1.2,0,0,0-.43,1.64h0l-1.35.79-1-1.68-2.25,1.33,1,1.68-1.34.79h0a1.22,1.22,0,0,0-1.65-.43l-.53.32-.15.1s0,0,0,0a.75.75,0,0,0-.15.16l0,0a.57.57,0,0,0-.08.13.41.41,0,0,0-.05.09s0,0,0,0,0,.08,0,.12,0,0,0,.08v0a1.12,1.12,0,0,0,.15.79l1,1.64h0l.06.11.08.11s0,0,0,0l.05.06,0,0,.07.06,0,0,.07,0h0l.07,0,0,0,.09,0,0,0,.06,0,.06,0h.64l.05,0h0l.06,0,.14-.07.53-.31.11-.08a.69.69,0,0,0,.13-.11l0,0,.07-.09.06-.08,0-.06,0-.07h0a.19.19,0,0,1,0-.07.88.88,0,0,0,0-.15.07.07,0,0,0,0,0h0v0s0-.06,0-.1v-.1a1.21,1.21,0,0,0-.16-.61h0l4.95-2.92h0l.05.07.05.07.1.11,0,0s0,0,.07.06a.18.18,0,0,0,.07,0v0l.14.07.14.06.1,0,.09,0h.43l.13,0,.07,0,.05,0a.67.67,0,0,0,.12-.06l.53-.31A1.2,1.2,0,0,0,31.89,84.55Z"/>
              </g>
            </g>
            <g>
              <g>
                <polygon class="cls-2" points="21.68 77.54 22.67 79.22 21.55 79.88 20.55 78.2 18.64 79.33 18.29 78.72 23.23 75.81 23.59 76.41 21.68 77.54"/>
                <g>
                  <polygon class="cls-3" points="23.23 75.81 18.29 78.72 18.12 78.44 17.95 78.16 22.9 75.24 23.07 75.52 23.23 75.81"/>
                  <polygon class="cls-3" points="23.42 79.2 23.57 79.45 21.31 80.78 21.18 80.56 20.32 79.1 18.98 79.89 18.81 79.61 18.64 79.33 20.55 78.2 21.55 79.88 22.67 79.22 21.68 77.54 23.59 76.41 23.76 76.69 23.93 76.98 22.58 77.77 23.42 79.2"/>
                </g>
              </g>
              <g>
                <path class="cls-3" d="M26.1,77.09l-.53.32A1.2,1.2,0,0,1,23.93,77h0l-.16-.28-.17-.29-.36-.61-.16-.28-.17-.28h0a1.21,1.21,0,0,1,.42-1.65l.54-.31.13-.07.05,0h0l.06,0,.08,0h.09l.1,0h.32l.08,0h0l.07,0,.05,0,0,0h0l.07,0,.06,0h0a.1.1,0,0,1,.05,0l.06,0,0,0,0,0s0,0,0,0l0,0,.07.1.13.22.9,1.53A1.21,1.21,0,0,1,26.1,77.09ZM26,75.78l-.82-1.39L24.93,74a.46.46,0,0,0-.16-.18.52.52,0,0,0-.45-.07l-.13,0-.45.27-.08,0a.54.54,0,0,0-.2.74h0l.1.17h0l.06.11.18.29.51.88.17.28h0a.55.55,0,0,0,.75.19l.53-.31A.55.55,0,0,0,26,75.78Z"/>
                <path class="cls-4" d="M25.77,76.53l-.53.31a.55.55,0,0,1-.75-.19h0l-.17-.28-.51-.88-.18-.29-.06-.11h0l-.1-.17h0a.54.54,0,0,1,.2-.74l.08,0,.45-.27.13,0a.52.52,0,0,1,.45.07.46.46,0,0,1,.16.18l.21.35L26,75.78A.55.55,0,0,1,25.77,76.53Z"/>
              </g>
              <g>
                <path class="cls-3" d="M18.55,81.54l-.53.31a1.19,1.19,0,0,1-1.64-.42l-1-1.75A1.19,1.19,0,0,1,15.77,78l.54-.31a1.19,1.19,0,0,1,1.64.42h0l.17.28.17.28.35.61.17.28.17.28h0A1.19,1.19,0,0,1,18.55,81.54Zm-.14-1.31h0l-.16-.29-.17-.28-.36-.61-.17-.28-.16-.28h0a.56.56,0,0,0-.75-.19l-.53.32a.53.53,0,0,0-.19.74l1,1.75a.56.56,0,0,0,.75.19l.53-.32A.53.53,0,0,0,18.41,80.23Z"/>
                <path class="cls-4" d="M18.22,81l-.53.32a.56.56,0,0,1-.75-.19l-1-1.75a.54.54,0,0,1,.2-.74l.53-.32a.56.56,0,0,1,.75.2h0l.16.28.17.28.36.61.16.28.17.29h0A.53.53,0,0,1,18.22,81Z"/>
              </g>
            </g>
            <g>
              <g>
                <polygon class="cls-2" points="28.96 85.52 24.01 88.43 23.65 87.83 25.56 86.7 24.57 85.02 25.7 84.36 26.69 86.04 28.6 84.91 28.96 85.52"/>
                <g>
                  <polygon class="cls-3" points="29.29 86.08 24.34 89 24.18 88.72 24.01 88.43 28.96 85.52 29.13 85.8 29.13 85.8 29.29 86.08"/>
                  <polygon class="cls-3" points="28.6 84.91 26.69 86.04 25.7 84.36 24.57 85.02 25.56 86.7 23.65 87.83 23.49 87.54 23.32 87.26 24.66 86.47 23.68 84.79 25.93 83.46 26.92 85.14 28.27 84.35 28.43 84.63 28.6 84.91"/>
                </g>
              </g>
              <g>
                <path class="cls-3" d="M24.51,89.61v.1s0,.07,0,.1v0h0a.07.07,0,0,1,0,0,.88.88,0,0,1,0,.15.19.19,0,0,0,0,.07h0l0,.07,0,.06-.06.08-.07.09,0,0a.69.69,0,0,1-.13.11l-.11.08-.53.31-.14.07-.06,0h0l-.05,0h-.64l-.06,0-.06,0,0,0-.09,0,0,0-.07,0h0l-.07,0,0,0-.07-.06,0,0-.05-.06s0,0,0,0l-.08-.11-.06-.11h0l-1-1.64a1.12,1.12,0,0,1-.15-.79v0s0-.06,0-.08,0-.08,0-.12,0,0,0,0a.41.41,0,0,1,.05-.09.57.57,0,0,1,.08-.13l0,0a.75.75,0,0,1,.15-.16l0,0,.15-.1.53-.32a1.22,1.22,0,0,1,1.65.43h0l.17.28.16.29.36.6.17.29.16.28h0A1.21,1.21,0,0,1,24.51,89.61Zm-.73-.27h0l-.17-.28-.69-1.17-.17-.29h0A.54.54,0,0,0,22,87.4l-.54.31a.56.56,0,0,0-.19.75l.24.4h0l.79,1.34a.54.54,0,0,0,.74.2l.54-.32A.31.31,0,0,0,23.7,90h0A.53.53,0,0,0,23.78,89.34Z"/>
                <path class="cls-4" d="M23.7,90h0a.31.31,0,0,1-.11.09l-.54.32a.54.54,0,0,1-.74-.2l-.79-1.34h0l-.24-.4a.56.56,0,0,1,.19-.75L22,87.4a.54.54,0,0,1,.74.19h0l.17.29.69,1.17.17.28h0A.53.53,0,0,1,23.7,90Z"/>
              </g>
              <g>
                <g>
                  <path class="cls-3" d="M29.89,82.22h0Z"/>
                  <path class="cls-3" d="M31.47,86.2l-.53.31a.67.67,0,0,1-.12.06l-.05,0-.07,0-.13,0h-.43l-.09,0-.1,0-.14-.06-.14-.07v0a.18.18,0,0,1-.07,0s-.05,0-.07-.06l0,0-.1-.11-.05-.07-.05-.07h0l-.16-.28h0L29,85.52l-.36-.61-.17-.28-.16-.28h0a1.2,1.2,0,0,1,.43-1.64l.53-.32.08,0,.07,0,.07,0,.13,0h.36l.1,0h0l.07,0,.13,0h0l0,0a.05.05,0,0,1,0,0l.07,0a.05.05,0,0,1,0,0,.1.1,0,0,1,.05,0h0a.18.18,0,0,0,.07,0l0,0,0,0,.09.11.05.06.05.07,1,1.74A1.2,1.2,0,0,1,31.47,86.2Zm-.14-1.31-.62-1.06-.41-.69a.54.54,0,0,0-.74-.19l-.54.31a.55.55,0,0,0-.19.75h0l.17.29.17.28.35.61.17.28.17.28h0a.55.55,0,0,0,.72.21h0l.54-.32A.55.55,0,0,0,31.33,84.89Z"/>
                </g>
                <path class="cls-4" d="M31.14,85.63,30.6,86h0a.55.55,0,0,1-.72-.21h0l-.17-.28-.17-.28-.35-.61L29,84.3,28.83,84h0a.55.55,0,0,1,.19-.75l.54-.31a.54.54,0,0,1,.74.19l.41.69.62,1.06A.55.55,0,0,1,31.14,85.63Z"/>
              </g>
            </g>
          </g>
          <g>
            <path class="cls-2" d="M39.43,54.28c-1.76,3.47-2.61,6.49-2.51,9a5.33,5.33,0,0,1-.12,1.37,8.2,8.2,0,0,1-1.24,2.89,6.35,6.35,0,0,1-3.32,2.68l-.2.05a3.6,3.6,0,0,1-.56.08c-1.64.09-3.14-1-4.38-3.33l-.39.21-.4.21a9.4,9.4,0,0,0,2.07,2.65,9.38,9.38,0,0,0-2.33,1,3.8,3.8,0,0,0-4.76-.75l-5.6,3.31a9.42,9.42,0,0,0-2.18-4.85,8.77,8.77,0,0,0-6.1-3.17l-.07.89a7.85,7.85,0,0,1,5.49,2.86,8.25,8.25,0,0,1,2,4.77,2.87,2.87,0,0,1,0,.42,1.77,1.77,0,0,1-.08.4h0a2.64,2.64,0,0,1-1.28,1.54,2.83,2.83,0,0,1-.77.31l-.31,0A2.22,2.22,0,0,1,10,75.12c-.51-1.6-2.07-1.82-3.64-2l-.27,0H5.88l-.44,0a4.22,4.22,0,0,1-2.93-1.13,4.93,4.93,0,0,1-.67-3.63c.3-3.13,1.38-5.61,3.14-7.17a7,7,0,0,1,1.16-.84l.15-.09a3,3,0,0,0,.28.34,5.57,5.57,0,0,0,.43.39l.45.33c1.89,1.26,5.32,2.15,9.35,2.34a3.17,3.17,0,1,0,3,0c3.91-.18,7.25-1,9.18-2.23,3-.47,5.19-3.15,6.37-7.82a5.17,5.17,0,0,0,2.75.78l.46,0a5.08,5.08,0,0,0,.78-.13l.12,0Z"/>
            <path class="cls-2" d="M14.74,75Z"/>
            <path class="cls-3" d="M15.72,74.41c0,.09,0,.18,0,.26a3.57,3.57,0,0,1-2.45,2.94,3.52,3.52,0,0,1-.66.15l-.12,0-.38,0a3.13,3.13,0,0,1-3-2.41C8.78,74.34,7.7,74.17,6,74H6L5.5,74,5,73.91a4.62,4.62,0,0,1-3.2-1.41C1.05,71.56.77,70.17,1,68.22c.23-2.37,1-5.64,3.48-7.8a7.49,7.49,0,0,1,1.49-1,2.3,2.3,0,0,0,.14.42,1,1,0,0,0,.1.17,2.39,2.39,0,0,0,.13.21l-.15.09A7,7,0,0,0,5,61.13c-1.76,1.56-2.84,4-3.14,7.17a4.93,4.93,0,0,0,.67,3.63,4.22,4.22,0,0,0,2.93,1.13l.44,0h.17l.27,0c1.57.15,3.13.37,3.64,2a2.22,2.22,0,0,0,2.42,1.77l.31,0a2.83,2.83,0,0,0,.77-.31A2.64,2.64,0,0,0,14.74,75h0a1.77,1.77,0,0,0,.08-.4,2.87,2.87,0,0,0,0-.42,8.25,8.25,0,0,0-2-4.77,7.85,7.85,0,0,0-5.49-2.86l.07-.89a8.77,8.77,0,0,1,6.1,3.17,9.42,9.42,0,0,1,2.18,4.85A4.72,4.72,0,0,1,15.72,74.41Z"/>
          </g>
          <g>
            <path class="cls-3" d="M12.64,55a.12.12,0,0,1-.11.14,10.2,10.2,0,0,1-1.23.1h-.21a11.62,11.62,0,0,1-4.48-.92.13.13,0,0,1-.06-.17A.13.13,0,0,1,6.71,54a11.08,11.08,0,0,0,5.78.81.15.15,0,0,1,.13,0Z"/>
            <path class="cls-4" d="M30.75,59a1.88,1.88,0,0,1-.24.91,2.87,2.87,0,0,1-.61.77,5.34,5.34,0,0,1-.89.68c-1.93,1.2-5.27,2.05-9.18,2.23-.5,0-1,0-1.52,0s-1,0-1.51,0c-4-.19-7.46-1.08-9.35-2.34L7,60.93a5.57,5.57,0,0,1-.43-.39,3,3,0,0,1-.28-.34A2.39,2.39,0,0,1,6.16,60a1,1,0,0,1-.1-.17,2.3,2.3,0,0,1-.14-.42,1.74,1.74,0,0,1,0-.39,2.09,2.09,0,0,1,.55-1.35,13.86,13.86,0,0,0,2.26,1.69h0a17.32,17.32,0,0,0,3,1.42l.74.25h0c.53.17,1.08.31,1.64.43h0a18.21,18.21,0,0,0,2.91.41h0c.44,0,.9.05,1.35.05a20.48,20.48,0,0,0,2.1-.11h0a18.37,18.37,0,0,0,2.92-.53c.56-.15,1.1-.32,1.63-.51h0a15.8,15.8,0,0,0,5.23-3.11A2.13,2.13,0,0,1,30.75,59Z"/>
          </g>
          <g>
            <path class="cls-2" d="M24.06,40l-.14,0h0Z"/>
            <path class="cls-2" d="M30.23,42.57a8.47,8.47,0,0,0-.79-.67,16.15,16.15,0,0,0-4.86-2.6c-.42-.14-.86-.28-1.31-.39,1.57-3.42,3.57-6.69,4.5-6.69,0,0,.18,0,.35.3A15.43,15.43,0,0,1,30.23,42.57Z"/>
            <path class="cls-3" d="M24.21,40.07l0,0L23.92,40h0l.14,0Z"/>
          </g>
          <g>
            <path class="cls-2" d="M13.68,38.83q-.66.15-1.29.36a16.67,16.67,0,0,0-4.81,2.4c-.29.22-.58.45-.85.68a15.37,15.37,0,0,1,2.14-9.75c.17-.3.3-.3.34-.3C10.14,32.22,12.11,35.44,13.68,38.83Z"/>
            <path class="cls-3" d="M33.36,50.1a3.85,3.85,0,0,0,.31,1.51h0a10.66,10.66,0,0,1-3.46,6A15.8,15.8,0,0,1,25,60.77h0c-.53.19-1.07.36-1.63.51a18.37,18.37,0,0,1-2.92.53h0a20.48,20.48,0,0,1-2.1.11c-.45,0-.91,0-1.35-.05h0a18.21,18.21,0,0,1-2.91-.41h0c-.56-.12-1.11-.26-1.64-.43h0l-.74-.25a17.32,17.32,0,0,1-3-1.42h0a13.86,13.86,0,0,1-2.26-1.69A10.27,10.27,0,0,1,2.83,50.1,10.11,10.11,0,0,1,5.91,43,16.24,16.24,0,0,1,8.09,32.09a1.26,1.26,0,0,1,1.12-.76c.65,0,1.75.45,3.87,4.33.59,1.09,1.12,2.19,1.48,3a20.39,20.39,0,0,1,7.83.06c.37-.79.91-1.92,1.52-3,2.11-3.88,3.21-4.33,3.86-4.33a1.27,1.27,0,0,1,1.13.76A16.4,16.4,0,0,1,31,43.37a10.25,10.25,0,0,1,2.64,5.23A3.8,3.8,0,0,0,33.36,50.1ZM23.27,38.91c.45.11.89.25,1.31.39a16.15,16.15,0,0,1,4.86,2.6,8.47,8.47,0,0,1,.79.67,15.43,15.43,0,0,0-2.11-10c-.17-.3-.31-.3-.35-.3C26.84,32.22,24.84,35.49,23.27,38.91ZM6.73,42.27c.27-.23.56-.46.85-.68a16.67,16.67,0,0,1,4.81-2.4q.63-.21,1.29-.36c-1.57-3.39-3.54-6.61-4.47-6.61,0,0-.17,0-.34.3A15.37,15.37,0,0,0,6.73,42.27ZM32.91,50.1a8.91,8.91,0,0,0-2.06-5.59c-.12-.15-.25-.3-.38-.44A11.34,11.34,0,0,0,29.37,43a13,13,0,0,0-1.15-.89h0a15.86,15.86,0,0,0-4-2l0,0-.15,0-.14,0h0c-.47-.15-1-.28-1.46-.39-.14,0-.29-.07-.44-.09a18.68,18.68,0,0,0-3.71-.36,19.47,19.47,0,0,0-3.37.29l-.45.09c-.58.12-1.15.26-1.71.43a15.55,15.55,0,0,0-5.15,2.68,12,12,0,0,0-1.17,1.07c-.13.13-.26.27-.38.41a9.05,9.05,0,0,0-2.36,6,9.41,9.41,0,0,0,3.33,6.95A16.49,16.49,0,0,0,17,61h0c.44,0,.88.05,1.33.05a20.24,20.24,0,0,0,2.08-.11h0a16.25,16.25,0,0,0,9.18-3.87A9.38,9.38,0,0,0,32.91,50.1Z"/>
          </g>
          <path class="cls-4" d="M12.39,39.19a16.67,16.67,0,0,0-4.81,2.4,10.78,10.78,0,0,1,1.56-5.54C9.87,34.73,11.38,37.21,12.39,39.19Z"/>
          <path class="cls-4" d="M29.44,41.9a16.15,16.15,0,0,0-4.86-2.6c1-2,2.57-4.59,3.31-3.25A10.73,10.73,0,0,1,29.44,41.9Z"/>
          <g>
            <path class="cls-2" d="M13.22,54.21a.14.14,0,0,1-.13.12h0a11.32,11.32,0,0,1-5.68-1.85.13.13,0,0,1,0-.18.13.13,0,0,1,.18,0,11.2,11.2,0,0,0,5.55,1.81A.12.12,0,0,1,13.22,54.21Z"/>
            <path class="cls-2" d="M13.64,53.55a.12.12,0,0,1-.12.09h0a11.39,11.39,0,0,1-5.14-3,.13.13,0,0,1,.18-.18,11.15,11.15,0,0,0,5,3A.13.13,0,0,1,13.64,53.55Z"/>
            <path class="cls-2" d="M14.08,48.55A1.12,1.12,0,1,1,13,47.43,1.12,1.12,0,0,1,14.08,48.55Z"/>
            <circle class="cls-2" cx="24.01" cy="48.55" r="1.12"/>
            <path class="cls-2" d="M28.75,50.59a11.36,11.36,0,0,1-5.13,3h0a.14.14,0,0,1-.13-.09.15.15,0,0,1,.09-.16,11.1,11.1,0,0,0,5-3,.13.13,0,0,1,.18.18Z"/>
            <path class="cls-2" d="M29.7,52.48A11.35,11.35,0,0,1,24,54.33h0a.13.13,0,0,1-.13-.12.12.12,0,0,1,.12-.13,11.27,11.27,0,0,0,5.55-1.81.13.13,0,0,1,.18,0A.14.14,0,0,1,29.7,52.48Z"/>
            <path class="cls-2" d="M24.21,40.07l0,0L23.92,40h0l.14,0Z"/>
            <path class="cls-3" d="M24.21,40.07l0,0L23.92,40h0l.14,0Zm0,0,0,0L23.92,40h0l.14,0Z"/>
            <path class="cls-2" d="M32.91,50.1a9.38,9.38,0,0,1-3.34,6.95,16.25,16.25,0,0,1-9.18,3.87h0a20.24,20.24,0,0,1-2.08.11c-.45,0-.89,0-1.33-.05h0a16.49,16.49,0,0,1-9.93-3.93A9.41,9.41,0,0,1,3.72,50.1a9.05,9.05,0,0,1,2.36-6c.12-.14.25-.28.38-.41a12,12,0,0,1,1.17-1.07A15.55,15.55,0,0,1,12.78,40c.56-.17,1.13-.31,1.71-.43l.45-.09a19.47,19.47,0,0,1,3.37-.29,18.68,18.68,0,0,1,3.71.36c.15,0,.3.06.44.09.5.11,1,.24,1.46.39h0l.27.08a15.86,15.86,0,0,1,4,2h0a13,13,0,0,1,1.15.89,11.34,11.34,0,0,1,1.1,1.09c.13.14.26.29.38.44A8.91,8.91,0,0,1,32.91,50.1ZM12.64,55l0-.06a.15.15,0,0,0-.13,0A11.08,11.08,0,0,1,6.71,54a.13.13,0,0,0-.16.07.13.13,0,0,0,.06.17,11.62,11.62,0,0,0,4.48.92h.21a10.2,10.2,0,0,0,1.23-.1A.12.12,0,0,0,12.64,55Zm.58-.75a.12.12,0,0,0-.12-.13,11.2,11.2,0,0,1-5.55-1.81.13.13,0,0,0-.18,0,.13.13,0,0,0,0,.18,11.32,11.32,0,0,0,5.68,1.85h0A.14.14,0,0,0,13.22,54.21Zm.33-.82a11.15,11.15,0,0,1-5-3,.13.13,0,0,0-.18.18,11.39,11.39,0,0,0,5.14,3h0a.12.12,0,0,0,.12-.09A.13.13,0,0,0,13.55,53.39Zm.53-4.84A1.12,1.12,0,1,0,13,49.67,1.12,1.12,0,0,0,14.08,48.55Zm6.38,5.91v-.11H20.2a.31.31,0,0,1,0,.1h0a.88.88,0,1,1-1.75,0v0l0,0c.75-.59,3.31-2.8-.16-2.81h0c-1.33,0-1.77.33-1.77.77,0,.7,1.15,1.68,1.61,2l0,0a0,0,0,0,1,0,0,.88.88,0,0,1-1.76,0h0s0-.07,0-.1h-.26v.11h0a1.13,1.13,0,0,0,2.14.51,1.13,1.13,0,0,0,2.14-.51ZM24,49.67a1.12,1.12,0,1,0-1.12-1.12A1.12,1.12,0,0,0,24,49.67Zm-.39,4a11.36,11.36,0,0,0,5.13-3,.13.13,0,0,0-.18-.18,11.1,11.1,0,0,1-5,3,.15.15,0,0,0-.09.16.14.14,0,0,0,.13.09Zm.4.69a11.35,11.35,0,0,0,5.68-1.85.14.14,0,0,0,0-.18.13.13,0,0,0-.18,0A11.27,11.27,0,0,1,24,54.08a.12.12,0,0,0-.12.13.13.13,0,0,0,.13.12Zm6.54-.22a.14.14,0,0,0-.17-.07,11.06,11.06,0,0,1-5.78.81.12.12,0,0,0-.14.11v0h0a.12.12,0,0,0,.11.1l.63.07c.27,0,.53,0,.8,0a11.55,11.55,0,0,0,4.48-.92A.12.12,0,0,0,30.56,54.11Z"/>
          </g>
          <path class="cls-3" d="M20.46,54.46a1.13,1.13,0,0,1-2.14.51,1.13,1.13,0,0,1-2.14-.51h0v-.11h.26s0,.06,0,.1h0a.88.88,0,0,0,1.76,0,0,0,0,0,0,0,0l0,0c-.46-.36-1.61-1.34-1.61-2,0-.44.44-.77,1.77-.77h0c3.47,0,.91,2.22.16,2.81l0,0v0a.88.88,0,1,0,1.75,0h0a.31.31,0,0,0,0-.1h.26Z"/>
          <g>
            <path class="cls-4" d="M39.6,51.22a1,1,0,0,1-.1.41,1.5,1.5,0,0,1-1.37.74,1.33,1.33,0,0,1-1.46-1.15.79.79,0,0,1,0-.3,1.07,1.07,0,0,1,.28-.43h0a1.56,1.56,0,0,1,.66-.36h0a2.31,2.31,0,0,1,.46-.05,1.55,1.55,0,0,1,1.26.56.87.87,0,0,1,.2.55A0,0,0,0,1,39.6,51.22Z"/>
            <path class="cls-4" d="M40.06,49.26c0,.4-.21.72-.46.72s-.47-.32-.47-.72.21-.72.47-.72S40.06,48.87,40.06,49.26Z"/>
            <path class="cls-4" d="M38.6,48.54c0,.4-.21.72-.47.72s-.47-.32-.47-.72.21-.71.47-.71S38.6,48.15,38.6,48.54Z"/>
            <path class="cls-4" d="M37.13,49.26c0,.4-.21.72-.46.72s-.47-.32-.47-.72.21-.72.47-.72S37.13,48.87,37.13,49.26Z"/>
          </g>
          <circle class="cls-3" cx="24.01" cy="48.55" r="1.12"/>
          <path class="cls-3" d="M14.08,48.55A1.12,1.12,0,1,1,13,47.43,1.12,1.12,0,0,1,14.08,48.55Z"/>
          <g>
            <path class="cls-3" d="M30.49,54.28A11.55,11.55,0,0,1,26,55.2c-.27,0-.53,0-.8,0l-.63-.07a.12.12,0,0,1-.11-.1h0v0a.12.12,0,0,1,.14-.11A11.06,11.06,0,0,0,30.39,54a.14.14,0,0,1,.17.07A.12.12,0,0,1,30.49,54.28Z"/>
            <path class="cls-3" d="M29.7,52.48A11.35,11.35,0,0,1,24,54.33h0a.13.13,0,0,1-.13-.12.12.12,0,0,1,.12-.13,11.27,11.27,0,0,0,5.55-1.81.13.13,0,0,1,.18,0A.14.14,0,0,1,29.7,52.48Z"/>
            <path class="cls-3" d="M28.75,50.59a11.36,11.36,0,0,1-5.13,3h0a.14.14,0,0,1-.13-.09.15.15,0,0,1,.09-.16,11.1,11.1,0,0,0,5-3,.13.13,0,0,1,.18.18Z"/>
          </g>
          <g>
            <path class="cls-3" d="M13.22,54.21a.14.14,0,0,1-.13.12h0a11.32,11.32,0,0,1-5.68-1.85.13.13,0,0,1,0-.18.13.13,0,0,1,.18,0,11.2,11.2,0,0,0,5.55,1.81A.12.12,0,0,1,13.22,54.21Z"/>
            <path class="cls-3" d="M13.64,53.55a.12.12,0,0,1-.12.09h0a11.39,11.39,0,0,1-5.14-3,.13.13,0,0,1,.18-.18,11.15,11.15,0,0,0,5,3A.13.13,0,0,1,13.64,53.55Z"/>
          </g>
        </g>
        <g>
          <ellipse class="cls-4" cx="63.07" cy="61.27" rx="4.29" ry="3.36"/>
          <ellipse class="cls-4" cx="67.36" cy="55.52" rx="1.37" ry="2.1"/>
          <ellipse class="cls-4" cx="63.07" cy="53.43" rx="1.37" ry="2.1"/>
          <ellipse class="cls-4" cx="58.78" cy="55.52" rx="1.37" ry="2.1"/>
        </g>
      </g>
      <g>
        <g>
          <path class="cls-2" d="M67.7,23.43l-5,2.92-.16-.28-.17-.29-.36-.6-.16-.29-.17-.28,1.35-.79-1-1.68,2.25-1.33,1,1.68,1.35-.8.16.29.17.28.36.61.17.28h0Zm.6-3.86h0Zm-5.49,7.91Zm.1-19.36L62.69,8A1,1,0,0,1,62.91,8.12Zm-2.82,6.77,1,1.67L60,17.23l-1-1.68-1.92,1.13.17.28.17.28h0A1.21,1.21,0,0,1,57,18.89l-.54.31a1.19,1.19,0,0,1-1.64-.42l-1-1.75a1.19,1.19,0,0,1,.43-1.64l.53-.32a1.2,1.2,0,0,1,1.64.43h0l5-2.91.17.28.17.28.35.61ZM56.29,25a7.3,7.3,0,0,1-13.61-3.68V20.5a21,21,0,0,1,1.71-9.14c1.73.16,2.8.33,3.14,1.38a3.11,3.11,0,0,0,3,2.41,2.43,2.43,0,0,0,.38,0H51a3.93,3.93,0,0,0,.29,1.34q.11.24.24.48l3.79,6.44ZM53.15,12.33h0v0Z"/>
          <path class="cls-2" d="M75.21,2A5.33,5.33,0,0,0,75.33.62v0A3.71,3.71,0,0,1,75.21,2Z"/>
          <circle class="cls-2" cx="56.72" cy="3.73" r="2.28"/>
          <path class="cls-3" d="M56.54,25.43l.28.46A8.69,8.69,0,0,1,50,29.5a8.21,8.21,0,0,1-8.19-8.19V20.5a22.52,22.52,0,0,1,1.65-9.24l.47.05.47,0h0a21,21,0,0,0-1.71,9.14v.81A7.3,7.3,0,0,0,56.29,25Z"/>
          <path class="cls-3" d="M57.27,26.67a1.28,1.28,0,0,1-.11-.2Z"/>
        </g>
        <g>
          <path class="cls-2" d="M75.21,2A5.33,5.33,0,0,0,75.33.62v0A3.71,3.71,0,0,1,75.21,2Z"/>
          <path class="cls-3" d="M75.21,2A5.33,5.33,0,0,0,75.33.62v0A3.71,3.71,0,0,1,75.21,2Z"/>
        </g>
        <g>
          <path class="cls-4" d="M68.3,19.57h0Z"/>
          <polygon class="cls-4" points="67.7 23.43 62.75 26.35 62.59 26.07 62.42 25.78 62.06 25.18 61.9 24.89 61.73 24.61 63.08 23.82 62.09 22.14 64.34 20.81 65.33 22.49 66.68 21.69 66.84 21.98 67.01 22.26 67.37 22.87 67.54 23.15 67.54 23.15 67.7 23.43"/>
        </g>
        <path class="cls-4" d="M55.33,23.37a5.62,5.62,0,1,1-5.42-7.09,5.81,5.81,0,0,1,1.39.17q.11.24.24.48Z"/>
        <g>
          <path class="cls-2" d="M71.12,19.61,65.42,10,65,9.19a7.78,7.78,0,0,1,2.23-.95l.57-.14a4.08,4.08,0,0,0,1.92.49,4.87,4.87,0,0,0,.91-.1C72.07,10.54,72.24,14.28,71.12,19.61Z"/>
          <path class="cls-3" d="M81.31-12.55a3.93,3.93,0,0,1-1.12,2.72h0a3.07,3.07,0,0,1-.26.25h0a3.66,3.66,0,0,0-.39.32h0a5.17,5.17,0,0,0-.49.54C77.63-6.12,76.1-2.53,76.22.58h0a4.27,4.27,0,0,1-.13,1.57,8.8,8.8,0,0,1-4.6,6.05c2.32,3.64.83,10.18.29,12.53l-.33-.56-.33-.57c1.12-5.33.95-9.07-.51-11.12a4.87,4.87,0,0,1-.91.1,4.08,4.08,0,0,1-1.92-.49l-.57.14A7.78,7.78,0,0,0,65,9.19l-.08-.14-.16-.24c-.09-.12-.18-.24-.28-.35a9,9,0,0,1,2.33-1,9.31,9.31,0,0,1-2.06-2.65l.39-.21.39-.22c1.24,2.29,2.74,3.43,4.38,3.34a3.6,3.6,0,0,0,.56-.08l.2-.05A6.35,6.35,0,0,0,74,4.88,8.2,8.2,0,0,0,75.21,2,3.71,3.71,0,0,0,75.34.65v0c-.1-2.5.75-5.53,2.51-9a.83.83,0,0,1,.07-.13l-.13,0a6.68,6.68,0,0,1-.78.13l-.46,0a5.17,5.17,0,0,1-2.75-.78c-1.18,4.67-3.36,7.35-6.37,7.82A5.46,5.46,0,0,0,68.31-2a3,3,0,0,0,.61-.77C71.14-4,72.35-6.86,73-9.7A4.09,4.09,0,0,1,72.09-11h0a3.61,3.61,0,0,1-.32-1.5,3.64,3.64,0,0,1,.32-1.5,4.78,4.78,0,0,1,4.45-2.72A4.52,4.52,0,0,1,81.31-12.55Zm-.94.54a3.1,3.1,0,0,0,0-.54v-.14a3.67,3.67,0,0,0-3.88-3.19,3.64,3.64,0,0,0-3.88,3.33,3,3,0,0,0,.59,1.77,3.7,3.7,0,0,0,.37.42A3.09,3.09,0,0,0,74-10a4.21,4.21,0,0,0,2.53.82A4.58,4.58,0,0,0,78-9.47a4.67,4.67,0,0,0,.51-.23,3.26,3.26,0,0,0,.4-.24,3.48,3.48,0,0,0,.48-.38l.25-.27a4.22,4.22,0,0,0,.27-.36,3.15,3.15,0,0,0,.35-.77A2.46,2.46,0,0,0,80.37-12Z"/>
        </g>
        <g>
          <circle class="cls-5" cx="56.72" cy="3.73" r="2.28"/>
          <path class="cls-3" d="M59.89,3.73A3.17,3.17,0,1,1,55.21.94c.5,0,1,0,1.51,0s1,0,1.52,0A3.19,3.19,0,0,1,59.89,3.73Zm-.89,0A2.28,2.28,0,1,0,56.72,6,2.28,2.28,0,0,0,59,3.73Z"/>
        </g>
        <g>
          <g>
            <polygon class="cls-5" points="60.09 14.89 61.08 16.56 59.96 17.23 58.97 15.55 57.05 16.68 56.7 16.07 61.65 13.15 62 13.76 60.09 14.89"/>
            <path class="cls-5" d="M67.37,22.87l-5,2.91-.36-.6L64,24.05l-1-1.68,1.12-.66,1,1.68L67,22.26Z"/>
            <g>
              <path class="cls-3" d="M62.91,8.12,62.69,8A1,1,0,0,1,62.91,8.12Zm0,0L62.69,8A1,1,0,0,1,62.91,8.12Z"/>
              <path class="cls-3" d="M70.94,26.78l-6.82,4a3.81,3.81,0,0,1-5.2-1.34l-1.65-2.79-.11-.2h0l-.34-.57-.28-.46L56.29,25l-1-1.62-3.79-6.44q-.13-.24-.24-.48A3.93,3.93,0,0,1,51,15.11a3.53,3.53,0,0,0,.66-.16c0,.13,0,.25,0,.37a.2.2,0,0,1,0,.07.28.28,0,0,1,0,.09s0,.06,0,.09a1.6,1.6,0,0,0,.05.21.36.36,0,0,0,0,.1.3.3,0,0,0,0,.1.74.74,0,0,0,0,.14.08.08,0,0,1,0,.05l0,.11.08.16a.3.3,0,0,0,0,.08l0,.07.11.18h0l3.3,5.6,1.15,2L58.26,27l.61,1,.62,1.05a3.13,3.13,0,0,0,4.29,1.11l1.67-1,4-2.35,1.17-.69a3.13,3.13,0,0,0,1.11-4.29l-.08-.13-.4-.68h0l-.33-.56h0l-6-10.14-.49-.83-.12-.19-.12-.2,0-.07L64.1,9,64,8.91l0-.06-.12-.12-.12-.11-.06-.06-.06-.05-.13-.09-.14-.1L63,8.17l-.11-.05A1,1,0,0,0,62.69,8l-.12,0-.11,0-.11,0-.07,0-.16,0-.17,0h-.33A3,3,0,0,0,60,8.28l-5.91,3.48a4.89,4.89,0,0,0,0-.75l5.6-3.3a3.8,3.8,0,0,1,4.76.75c.1.11.19.23.28.35l.16.24.08.14.44.76,5.7,9.66.33.57.33.56.5.85A3.8,3.8,0,0,1,70.94,26.78Z"/>
            </g>
            <g>
              <path class="cls-5" d="M68.3,19.57h0ZM62.91,8.12,62.69,8A1,1,0,0,1,62.91,8.12Z"/>
              <path class="cls-5" d="M70.61,26.21l-1.17.69-4,2.35-1.67,1a3.13,3.13,0,0,1-4.29-1.11l-.62-1.05-.61-1-1.6-2.71-1.15-2-3.3-5.6h0l-.11-.18,0-.07a.3.3,0,0,1,0-.08l-.08-.16,0-.11a.08.08,0,0,0,0-.05.74.74,0,0,1,0-.14.3.3,0,0,1,0-.1.36.36,0,0,1,0-.1,1.6,1.6,0,0,1-.05-.21s0-.06,0-.09a.28.28,0,0,0,0-.09.2.2,0,0,0,0-.07c0-.12,0-.24,0-.37A3.55,3.55,0,0,0,54.12,12a2.17,2.17,0,0,0,0-.26L60,8.28a3,3,0,0,1,1.58-.44H62l.17,0,.16,0,.07,0,.11,0,.11,0,.12,0,.22.09.11.05.28.15.14.1.13.09.06.05.06.06.12.11.12.12,0,.06L64.1,9l.06.08,0,.07.12.2.12.19.49.83,6,10.14h0l.33.56h0l.4.68.08.13A3.13,3.13,0,0,1,70.61,26.21Zm-11-8.31.13.23L62,16.8l-.15-.25L61,15.12l1.35-.79h0a1.19,1.19,0,0,0,1.64.42l.53-.31a1.2,1.2,0,0,0,.43-1.64L64,11.27l-.13-.22a.61.61,0,0,0-.07-.1l0,0-.05-.05,0,0,0-.05-.05,0-.06,0h0l0,0-.07,0h-.08l-.05,0-.07,0h0l-.08,0h-.06l-.1,0H62.7l-.09,0-.08,0-.06,0h0l-.05,0-.13.07-.54.31a1.19,1.19,0,0,0-.42,1.64h0l-5,2.91h0a1.2,1.2,0,0,0-1.64-.43l-.53.32A1.19,1.19,0,0,0,53.76,17l1,1.75a1.19,1.19,0,0,0,1.64.42l.54-.31a1.21,1.21,0,0,0,.42-1.65h0l1.34-.79Zm10.72,4-1-1.74,0-.07a.43.43,0,0,1,0-.07l-.1-.1,0,0s0,0,0,0L69,19.8h0l0,0,0,0-.08,0a.05.05,0,0,0,0,0l0,0h0l-.12,0-.08,0H68l-.12,0-.08,0-.07,0-.08,0-.53.32a1.19,1.19,0,0,0-.42,1.64h0l-1.35.8-1-1.68-2.25,1.33,1,1.68-1.35.79h0a1.2,1.2,0,0,0-1.64-.43l-.54.32-.15.1,0,0a.75.75,0,0,0-.15.16l0,0-.08.12,0,.1,0,.05s0,.08,0,.12,0,.05,0,.07a.13.13,0,0,0,0,.06,1.12,1.12,0,0,0,.15.79l1,1.64h0l.07.1a.75.75,0,0,0,.07.12l0,0,0,.06,0,0,.07.07,0,0,.06.05h0l.07,0,.05,0,.09.05,0,0h.06l.06,0,.06,0h.19a1.2,1.2,0,0,0,.19,0h.2l.06,0h0l.06,0,.14-.07.53-.32.12-.07.12-.11,0,0,.08-.09a.35.35,0,0,1,0-.08l0-.06a.16.16,0,0,1,0-.07h0l0-.07c0-.05,0-.1,0-.15l0-.05h0v0s0-.07,0-.1V27a1.21,1.21,0,0,0-.16-.61h0l5-2.92h0l0,.06,0,.08.1.11,0,0,.07.06.07.05h0l.14.08.14.06.1,0,.09,0h.35L69,24h0l.13,0,.07,0,0,0,.12-.06.53-.31A1.22,1.22,0,0,0,70.31,21.9Z"/>
            </g>
          </g>
          <g>
            <g>
              <polygon class="cls-2" points="60.09 14.89 61.08 16.56 59.96 17.23 58.97 15.55 57.05 16.68 56.7 16.07 61.65 13.15 62 13.76 60.09 14.89"/>
              <g>
                <polygon class="cls-3" points="61.65 13.15 56.7 16.07 56.53 15.79 56.36 15.5 61.31 12.59 61.48 12.87 61.65 13.15"/>
                <polygon class="cls-3" points="61.83 16.55 61.98 16.8 59.72 18.13 59.59 17.9 58.73 16.45 57.39 17.24 57.22 16.96 57.05 16.68 58.97 15.55 59.96 17.23 61.08 16.56 60.09 14.89 62 13.76 62.17 14.04 62.34 14.32 60.99 15.12 61.83 16.55"/>
              </g>
            </g>
            <g>
              <path class="cls-3" d="M64.51,14.44l-.53.31a1.19,1.19,0,0,1-1.64-.42h0L62.17,14,62,13.76l-.35-.61-.17-.28-.17-.28h0a1.19,1.19,0,0,1,.42-1.64l.54-.31.13-.07.05,0h0l.06,0,.08,0,.09,0H63l.1,0h.06l.08,0h0l.07,0,.05,0h.08l.07,0,0,0h0l.06,0,.05,0,0,.05,0,0,.05.05,0,0a.61.61,0,0,1,.07.1l.13.22.9,1.53A1.2,1.2,0,0,1,64.51,14.44Zm-.14-1.31-.82-1.4-.2-.35a.69.69,0,0,0-.17-.17.52.52,0,0,0-.45-.07l-.13,0-.45.27-.08,0a.53.53,0,0,0-.19.74h0l.1.18h0l.06.11.18.29.52.88.16.28h0a.56.56,0,0,0,.75.19l.53-.32A.53.53,0,0,0,64.37,13.13Z"/>
              <path class="cls-4" d="M64.18,13.87l-.53.32A.56.56,0,0,1,62.9,14h0l-.16-.28-.52-.88L62,12.54,62,12.43h0l-.1-.18h0a.53.53,0,0,1,.19-.74l.08,0,.45-.27.13,0a.52.52,0,0,1,.45.07.69.69,0,0,1,.17.17l.2.35.82,1.4A.53.53,0,0,1,64.18,13.87Z"/>
            </g>
            <g>
              <path class="cls-3" d="M57,18.89l-.54.31a1.19,1.19,0,0,1-1.64-.42l-1-1.75a1.19,1.19,0,0,1,.43-1.64l.53-.32a1.2,1.2,0,0,1,1.64.43h0l.17.29.17.28.35.61.17.28.17.28h0A1.21,1.21,0,0,1,57,18.89Zm-.14-1.31h0l-.16-.28L56.49,17l-.36-.61L56,16.12l-.16-.28h0a.55.55,0,0,0-.75-.19l-.53.31a.54.54,0,0,0-.19.75l1,1.74a.54.54,0,0,0,.74.2l.53-.32A.54.54,0,0,0,56.83,17.58Z"/>
              <path class="cls-4" d="M56.63,18.32l-.53.32a.56.56,0,0,1-.75-.2l-1-1.74a.53.53,0,0,1,.19-.74l.53-.32a.55.55,0,0,1,.75.19h0l.16.28.17.28.36.61.17.28.16.28h0A.54.54,0,0,1,56.63,18.32Z"/>
            </g>
          </g>
          <g>
            <g>
              <polygon class="cls-2" points="67.37 22.87 62.42 25.78 62.06 25.18 63.98 24.05 62.99 22.37 64.11 21.71 65.1 23.39 67.01 22.26 67.37 22.87"/>
              <g>
                <polygon class="cls-3" points="67.7 23.43 62.75 26.35 62.59 26.07 62.42 25.78 67.37 22.87 67.54 23.15 67.54 23.15 67.7 23.43"/>
                <polygon class="cls-3" points="67.01 22.26 65.1 23.39 64.11 21.71 62.99 22.37 63.98 24.05 62.06 25.18 61.9 24.89 61.73 24.61 63.08 23.82 62.09 22.14 64.34 20.81 65.33 22.49 66.68 21.69 66.84 21.98 67.01 22.26"/>
              </g>
            </g>
            <g>
              <path class="cls-3" d="M62.92,27v.1s0,.07,0,.1v0h0l0,.05s0,.1,0,.15l0,.07h0a.16.16,0,0,0,0,.07l0,.06a.35.35,0,0,0,0,.08l-.08.09,0,0-.12.11-.12.07-.53.32-.14.07-.06,0h0l-.06,0h-.2a1.2,1.2,0,0,1-.19,0h-.19l-.06,0-.06,0h-.06l0,0-.09-.05-.05,0-.07,0h0l-.06-.05,0,0-.07-.07,0,0,0-.06,0,0a.75.75,0,0,1-.07-.12l-.07-.1h0l-1-1.64a1.12,1.12,0,0,1-.15-.79.13.13,0,0,1,0-.06s0-.05,0-.07,0-.08,0-.12l0-.05,0-.1.08-.12,0,0a.75.75,0,0,1,.15-.16l0,0,.15-.1.54-.32a1.2,1.2,0,0,1,1.64.43h0l.17.28.16.29.36.6.17.29.16.28h0A1.21,1.21,0,0,1,62.92,27Zm-.73-.28h0L62,26.4l-.69-1.18-.16-.28h0a.53.53,0,0,0-.74-.19l-.54.31a.55.55,0,0,0-.19.74l.24.41h0l.79,1.34a.54.54,0,0,0,.75.19l.53-.31.11-.09h0A.54.54,0,0,0,62.19,26.68Z"/>
              <path class="cls-4" d="M62.11,27.34h0l-.11.09-.53.31a.54.54,0,0,1-.75-.19l-.79-1.34h0l-.24-.41a.55.55,0,0,1,.19-.74l.54-.31a.53.53,0,0,1,.74.19h0l.16.28L62,26.4l.17.28h0A.54.54,0,0,1,62.11,27.34Z"/>
            </g>
            <g>
              <g>
                <path class="cls-3" d="M68.3,19.57h0Z"/>
                <path class="cls-3" d="M69.88,23.55l-.53.31-.12.06,0,0-.07,0L69,24h0l-.07,0h-.35l-.09,0-.1,0-.14-.06-.14-.08h0L68,23.77l-.07-.06,0,0-.1-.11,0-.08,0-.06h0l-.16-.28h0l-.17-.28L67,22.26,66.84,22l-.16-.29h0a1.19,1.19,0,0,1,.42-1.64l.53-.32.08,0,.07,0,.08,0,.12,0h.49l.08,0,.12,0h0l0,0a.05.05,0,0,1,0,0l.08,0,0,0,0,0h0l.07.05s0,0,0,0l0,0,.1.1,0,.07,0,.07,1,1.74A1.22,1.22,0,0,1,69.88,23.55Zm-.14-1.31-.62-1.06-.41-.69A.54.54,0,0,0,68,20.3l-.54.31a.56.56,0,0,0-.19.75h0l.17.28.17.29.35.6.17.29.17.28h0a.55.55,0,0,0,.72.21h0l.54-.32A.54.54,0,0,0,69.74,22.24Z"/>
              </g>
              <path class="cls-4" d="M69.55,23,69,23.3h0a.55.55,0,0,1-.72-.21h0l-.17-.28-.17-.29-.35-.6-.17-.29-.17-.28h0a.56.56,0,0,1,.19-.75L68,20.3a.54.54,0,0,1,.74.19l.41.69.62,1.06A.54.54,0,0,1,69.55,23Z"/>
            </g>
          </g>
        </g>
        <g>
          <path class="cls-2" d="M77.84-8.37c-1.76,3.46-2.61,6.49-2.51,9A5.33,5.33,0,0,1,75.21,2,8.2,8.2,0,0,1,74,4.88a6.35,6.35,0,0,1-3.32,2.68l-.2.05a3.6,3.6,0,0,1-.56.08c-1.64.09-3.14-1.05-4.38-3.34l-.39.22-.39.21a9.31,9.31,0,0,0,2.06,2.65,9,9,0,0,0-2.33,1,3.8,3.8,0,0,0-4.76-.75L54.1,11a9.42,9.42,0,0,0-2.18-4.84A8.75,8.75,0,0,0,45.82,3l-.07.89a7.85,7.85,0,0,1,5.49,2.86,8.22,8.22,0,0,1,2,4.77,2.87,2.87,0,0,1,0,.42,1.69,1.69,0,0,1-.08.39v0a2.62,2.62,0,0,1-1.27,1.55,3.26,3.26,0,0,1-.78.31l-.31.05a2.23,2.23,0,0,1-2.42-1.77c-.51-1.6-2.07-1.83-3.63-2l-.27,0h-.18l-.44-.05a4.18,4.18,0,0,1-2.93-1.14,4.89,4.89,0,0,1-.67-3.62c.3-3.14,1.38-5.62,3.14-7.17a6.43,6.43,0,0,1,1.16-.84l.16-.09a2.88,2.88,0,0,0,.27.34,5.57,5.57,0,0,0,.43.39l.45.33C47.75-.13,51.18.76,55.21.94a3.17,3.17,0,1,0,3,0c3.91-.17,7.26-1,9.18-2.22,3-.47,5.19-3.15,6.37-7.82a5.17,5.17,0,0,0,2.75.78l.46,0a6.68,6.68,0,0,0,.78-.13l.13,0A.83.83,0,0,0,77.84-8.37Z"/>
          <path class="cls-2" d="M53.15,12.33h0v0Z"/>
          <path class="cls-3" d="M54.13,11.76a2.17,2.17,0,0,1,0,.26A3.69,3.69,0,0,1,51,15.11h-.12a2.43,2.43,0,0,1-.38,0,3.11,3.11,0,0,1-3-2.41c-.34-1.05-1.41-1.22-3.14-1.38h0l-.47,0-.47-.05a4.67,4.67,0,0,1-3.2-1.42c-.77-.93-1.06-2.33-.87-4.27.22-2.37,1-5.64,3.47-7.8a8,8,0,0,1,1.49-1,1.69,1.69,0,0,0,.15.43.7.7,0,0,0,.09.17,1.28,1.28,0,0,0,.14.21l-.16.09a6.43,6.43,0,0,0-1.16.84c-1.76,1.55-2.84,4-3.14,7.17a4.89,4.89,0,0,0,.67,3.62,4.18,4.18,0,0,0,2.93,1.14l.44.05h.18l.27,0c1.56.14,3.12.37,3.63,2a2.23,2.23,0,0,0,2.42,1.77l.31-.05a3.26,3.26,0,0,0,.78-.31,2.62,2.62,0,0,0,1.27-1.55h0a1.69,1.69,0,0,0,.08-.39,2.87,2.87,0,0,0,0-.42,8.22,8.22,0,0,0-2-4.77,7.85,7.85,0,0,0-5.49-2.86L45.82,3a8.75,8.75,0,0,1,6.1,3.17A9.42,9.42,0,0,1,54.1,11,4.89,4.89,0,0,1,54.13,11.76Z"/>
        </g>
        <path class="cls-4" d="M69.16-3.64a1.88,1.88,0,0,1-.24.91,3,3,0,0,1-.61.77,5.46,5.46,0,0,1-.89.68C65.5-.08,62.15.77,58.24.94c-.5,0-1,0-1.52,0s-1,0-1.51,0c-4-.18-7.46-1.07-9.35-2.33l-.45-.33A5.57,5.57,0,0,1,45-2.11a2.88,2.88,0,0,1-.27-.34,1.28,1.28,0,0,1-.14-.21.7.7,0,0,1-.09-.17,1.69,1.69,0,0,1-.15-.43,1.58,1.58,0,0,1,0-.38A2.07,2.07,0,0,1,44.83-5,15,15,0,0,0,47.09-3.3h0a16.57,16.57,0,0,0,3,1.41l.74.26h0c.53.16,1.07.31,1.63.43h0a18.37,18.37,0,0,0,2.91.41h0c.45,0,.9.05,1.35.05a20.48,20.48,0,0,0,2.1-.11h0a19.56,19.56,0,0,0,2.92-.53c.56-.15,1.11-.32,1.64-.51h0A15.8,15.8,0,0,0,68.62-5,2.06,2.06,0,0,1,69.16-3.64Z"/>
      </g>
      <g>
        <g>
          <path class="cls-3" d="M4.49-12.55A3.93,3.93,0,0,1,3.37-9.83h0a3.07,3.07,0,0,1-.26.25h0a2.88,2.88,0,0,0-.39.32h0a5.11,5.11,0,0,0-.48.54C.81-6.12-.72-2.53-.6.58h0A4.27,4.27,0,0,1-.73,2.16a8.82,8.82,0,0,1-4.6,6.05C-3,11.85-4.5,18.39-5,20.74l-.33-.56-.33-.57c1.12-5.33,1-9.07-.51-11.12a5,5,0,0,1-.91.1A4.15,4.15,0,0,1-9,8.1l-.56.14a7.78,7.78,0,0,0-2.23.95l-.08-.14-.16-.24c-.09-.12-.18-.24-.28-.35a9,9,0,0,1,2.33-1A9.36,9.36,0,0,1-12.1,4.78l.39-.21.4-.22c1.24,2.29,2.74,3.43,4.38,3.34a3.6,3.6,0,0,0,.56-.08l.19-.05A6.33,6.33,0,0,0-2.85,4.88,8.2,8.2,0,0,0-1.61,2,3.5,3.5,0,0,0-1.49.65v0c-.1-2.5.74-5.53,2.51-9l.06-.13L1-8.47a7,7,0,0,1-.78.13l-.46,0A5.17,5.17,0,0,1-3-9.1C-4.21-4.43-6.39-1.75-9.4-1.28A5.93,5.93,0,0,0-8.51-2a3,3,0,0,0,.61-.77C-5.69-4-4.47-6.86-3.8-9.7A4.28,4.28,0,0,1-4.74-11h0A3.76,3.76,0,0,1-5-12.55,3.8,3.8,0,0,1-4.74-14,4.8,4.8,0,0,1-.28-16.77,4.52,4.52,0,0,1,4.49-12.55ZM3.55-12a3.1,3.1,0,0,0,.05-.54v-.14A3.67,3.67,0,0,0-.28-15.88a3.64,3.64,0,0,0-3.88,3.33,3,3,0,0,0,.59,1.77,2.93,2.93,0,0,0,.37.42,3.9,3.9,0,0,0,.38.33,4.26,4.26,0,0,0,2.54.82,4.52,4.52,0,0,0,1.49-.26,4.83,4.83,0,0,0,.52-.23,3.26,3.26,0,0,0,.4-.24,2.89,2.89,0,0,0,.47-.38l.26-.27a2.7,2.7,0,0,0,.26-.36,2.84,2.84,0,0,0,.36-.77A2.46,2.46,0,0,0,3.55-12Z"/>
          <path class="cls-2" d="M1-8.37C-.75-4.91-1.59-1.88-1.49.62A5.33,5.33,0,0,1-1.61,2,8.2,8.2,0,0,1-2.85,4.88,6.33,6.33,0,0,1-6.18,7.56l-.19.05a3.6,3.6,0,0,1-.56.08c-1.64.09-3.14-1.05-4.38-3.34l-.4.22-.39.21A9.36,9.36,0,0,0-10,7.43a9,9,0,0,0-2.33,1,3.8,3.8,0,0,0-4.76-.75l-5.6,3.3A9.42,9.42,0,0,0-24.9,6.17,8.77,8.77,0,0,0-31,3l-.07.89a7.85,7.85,0,0,1,5.49,2.86,8.22,8.22,0,0,1,2,4.77c0,.15,0,.29,0,.42a1.69,1.69,0,0,1-.08.39l0,0,0,0a2.63,2.63,0,0,1-1.28,1.55,3.19,3.19,0,0,1-.77.31l-.31.05a2.23,2.23,0,0,1-2.42-1.77c-.51-1.6-2.07-1.83-3.64-2l-.27,0h-.17l-.44-.05A4.18,4.18,0,0,1-35.9,9.27a4.89,4.89,0,0,1-.67-3.62c.3-3.14,1.38-5.62,3.14-7.17a6.43,6.43,0,0,1,1.16-.84l.15-.09a3,3,0,0,0,.28.34,5.57,5.57,0,0,0,.43.39c.13.11.29.22.45.33C-29.07-.13-25.64.76-21.61.94a3.18,3.18,0,0,0-1.66,2.79A3.18,3.18,0,0,0-20.1,6.89a3.17,3.17,0,0,0,3.17-3.16A3.19,3.19,0,0,0-18.58.94c3.9-.17,7.25-1,9.18-2.22,3-.47,5.19-3.15,6.37-7.82a5.17,5.17,0,0,0,2.75.78l.46,0A7,7,0,0,0,1-8.47l.12,0Z"/>
        </g>
        <ellipse class="cls-4" cx="24.66" cy="-1.38" rx="4.29" ry="3.36"/>
      </g>
    </pattern>
  </defs>
  <title>cmfolio cat</title>
  <g class="cls-6">
    <g id="Layer_1" data-name="Layer 1">
      <g>
        <g>
          <g>
            <path class="cls-8" d="M576,390.1a2.2,2.2,0,0,0-.11-.48,3.14,3.14,0,0,0-.23-.67,11.31,11.31,0,0,0-.73-1.41c-.15-.27-.32-.54-.51-.82-.39-.58-.84-1.21-1.36-1.9-10.63-13.69-2.66-29.51-2.66-29.51,20.3-42.11-30.89-41.23-17.84-89.05.72-2.67,1.35-5.51,1.87-8.48s1-6.1,1.3-9.34v0c.08-.8.16-1.62.24-2.45s.17-2,.23-3c0-.53.08-1.06.11-1.6.39-5.88.49-12.08.37-18.47,0-1.12-.05-2.23-.08-3.35,0-1.32-.09-2.63-.15-4s-.09-2.34-.17-3.52-.14-2.38-.22-3.55c-.05-.79-.11-1.59-.17-2.38-.06-1-.14-2-.23-3q-.2-2.5-.45-5c-.56-5.89-1.29-11.8-2.13-17.66q-.55-3.77-1.16-7.51c-.26-1.66-.56-3.32-.85-5-.22-1.24-.44-2.47-.67-3.69-.08-.4-.15-.81-.23-1.23-.16-.8-.31-1.61-.47-2.41s-.32-1.62-.48-2.42c-.22-1-.42-2-.63-3s-.42-2-.64-2.94q-.18-.89-.39-1.77-.63-2.79-1.28-5.47l-.61-2.42c-.85-3.41-1.74-6.73-2.67-9.91-.35-1.23-.71-2.42-1.07-3.62h0c-.35-1.16-.73-2.3-1.07-3.41-.28-.86-.55-1.71-.83-2.53s-.61-1.78-.9-2.65q-1.51-4.29-3.07-8.08c-.45-1.1-.9-2.16-1.37-3.18-1-2.31-2.06-4.45-3.11-6.39l-.53-.94c-.33-.58-.65-1.15-1-1.68-.14-.2-.26-.42-.39-.62a35.47,35.47,0,0,0-2.34-3.38c-.17-.23-.34-.45-.53-.67l-.52-.62c-.24-.26-.45-.49-.69-.73s-.46-.45-.69-.65a10.67,10.67,0,0,0-1.18-.91c-.19-.14-.39-.27-.59-.39l-.3-.17a4.77,4.77,0,0,0-.82-.4,4.53,4.53,0,0,0-.8-.3,3.8,3.8,0,0,0-.61-.18c-.23,0-.45-.1-.67-.13a4.58,4.58,0,0,0-.66-.08l-.65,0a8.85,8.85,0,0,0-.89,0,9.93,9.93,0,0,0-2.46.56,3.79,3.79,0,0,0-.5.18c-.22.08-.43.17-.67.28s-.52.25-.79.39a18.81,18.81,0,0,0-2.12,1.29l-.78.57a23,23,0,0,0-1.86,1.54,59.75,59.75,0,0,0-8.39,9.7c-.62.86-1.22,1.74-1.84,2.66-.45.68-.92,1.38-1.37,2.09s-.91,1.44-1.36,2.17-1.06,1.72-1.57,2.61q-.56.93-1.11,1.89c-.59,1-1.18,2.06-1.76,3.11s-1.14,2.1-1.72,3.17c-.85,1.59-1.69,3.21-2.51,4.84s-1.61,3.24-2.4,4.86c-.53,1.07-1,2.16-1.55,3.23s-1,2.14-1.49,3.19c-.64,1.37-1.26,2.72-1.85,4.05-.2.44-.39.85-.57,1.29-1.43,3.19-2.75,6.25-3.94,9-.23.57-.47,1.12-.7,1.66q-1.14,2.7-2.09,5c-.2.49-.41,1-.58,1.41-.31.71-.58,1.38-.83,2l-.25.6c-.34.79-.64,1.52-.9,2.16-7.07,16.86-11.49,25.26-33.2,15.8-21-9.15-69.24-8.5-72.56-8.43s-51.56-.72-72.54,8.43c-.64.28-1.24.53-1.85.78l-.41.17-1.35.52-1.31.47c-.85.29-1.67.56-2.46.79-1,.28-1.86.51-2.73.68-.44.1-.85.17-1.27.24-.2,0-.42.07-.62.09-.47.06-.93.12-1.38.15h-.05a11.7,11.7,0,0,1-1.3.07c-.27,0-.51,0-.75,0l-.55,0a11.37,11.37,0,0,1-1.38-.16,7.49,7.49,0,0,1-.8-.15l-.76-.2c-.37-.11-.72-.24-1.07-.37a.18.18,0,0,1-.09,0l-.94-.43a1.17,1.17,0,0,1-.25-.14,9.26,9.26,0,0,1-.86-.51h0c-.33-.22-.65-.45-1-.7s-.36-.28-.53-.43l-.53-.48c-.35-.35-.69-.7-1-1.09a24.8,24.8,0,0,1-2-2.71c-.31-.5-.63-1-.94-1.55l-.47-.84c-.26-.5-.52-1-.79-1.52-.8-1.57-1.58-3.29-2.37-5.12-.45-1-.92-2.14-1.38-3.27-.05-.11-.09-.23-.16-.36s-.1-.25-.15-.37c-.22-.5-.44-1-.68-1.64-.5-1.18-1-2.52-1.65-4-.29-.73-.62-1.5-1-2.31l-.51-1.22c-.33-.78-.65-1.57-1-2.38l-.14-.32c-.36-.81-.7-1.63-1.07-2.48-.59-1.38-1.2-2.79-1.85-4.25-.25-.56-.49-1.13-.74-1.69-.44-1-.9-2-1.38-3.07-1.63-3.63-3.4-7.4-5.26-11.18-.36-.72-.73-1.45-1.08-2.16s-.64-1.3-1-2-.54-1.07-.82-1.6q-1-2-2.09-4a.15.15,0,0,0-.05-.08c-.56-1-1.12-2-1.69-3a8,8,0,0,0-.51-.9c-.3-.51-.57-1-.87-1.51-.42-.74-.84-1.45-1.27-2.17-.61-1-1.21-2-1.82-2.93-1.81-2.85-3.66-5.53-5.52-8v0l-.7-.9c-.7-.88-1.39-1.7-2.09-2.49s-1.26-1.4-1.88-2q-.47-.5-.93-.93c-.29-.28-.59-.56-.88-.81a26.68,26.68,0,0,0-2.73-2.17l-.36-.25-.71-.46c-.3-.19-.59-.34-.89-.5a7.69,7.69,0,0,0-.91-.45,8.09,8.09,0,0,0-.85-.35,1.81,1.81,0,0,0-.41-.14,6.82,6.82,0,0,0-1.08-.31,4.64,4.64,0,0,0-.51-.11,5.57,5.57,0,0,0-.76-.11,8.85,8.85,0,0,0-.89,0,7,7,0,0,0-.79,0,3.93,3.93,0,0,0-.59.06l-.36.08-.74.18-.23.08a5.8,5.8,0,0,0-.73.28l-.14.06-.36.17a2,2,0,0,0-.35.19l-.41.25-.42.28a2.53,2.53,0,0,0-.35.25,4.17,4.17,0,0,0-.53.41,9.14,9.14,0,0,0-.74.67l-.47.47c-.15.15-.29.32-.45.49-.29.34-.59.68-.88,1.06a13.48,13.48,0,0,0-.89,1.18c-.29.4-.59.82-.88,1.27-.59.88-1.18,1.83-1.77,2.83-.29.52-.59,1-.88,1.57l-.87,1.66c-.3.57-.57,1.15-.87,1.74,0,0,0,0,0,0-.45,1-.91,1.94-1.38,3,0,0,0,0,0,0-.45,1-.9,2.08-1.36,3.18-.35.84-.69,1.67-1,2.54-1,2.58-2,5.31-3,8.19,0,0,0,0,0,0-1.71,5.11-3.35,10.68-4.9,16.56-.21.73-.39,1.47-.58,2.23-.37,1.49-.74,3-1.11,4.51-.19.78-.38,1.54-.55,2.33-.35,1.53-.69,3.1-1,4.67s-.68,3.16-1,4.77-.64,3.21-.95,4.82v0c-.31,1.61-.6,3.25-.89,4.88s-.58,3.29-.86,4.95c-.14.83-.26,1.66-.4,2.49-.2,1.26-.39,2.52-.57,3.79s-.36,2.49-.53,3.75c0,0,0,0,0,0-.23,1.67-.45,3.35-.67,5,0,.21-.06.43-.08.65-.18,1.45-.35,2.93-.51,4.39,0,.43-.09.86-.14,1.28-.14,1.26-.26,2.51-.39,3.77-.24,2.53-.46,5.06-.65,7.57-.14,1.87-.26,3.75-.37,5.61-.12,2.08-.23,4.14-.29,6.19-.07,1.63-.11,3.24-.14,4.84-.06,2.9-.08,5.77,0,8.57,0,.56,0,1.1,0,1.66.08,4,.27,8,.59,11.79.05.74.11,1.47.19,2.2.09,1,.2,2,.31,3,.14,1.32.31,2.62.49,3.89s.33,2.22.52,3.3c.12.79.26,1.57.41,2.35.07.37.13.72.21,1.07.12.65.26,1.27.4,1.9s.31,1.4.48,2.1.34,1.36.53,2c13,47.82-38.15,46.94-17.87,89.05l0,.11a.81.81,0,0,1,.06.13c.13.28.36.8.64,1.53l.14.37c0,.14.1.28.15.42a3.56,3.56,0,0,0,.13.39l.14.42c0,.14.09.28.13.43s.19.61.27.93c.14.49.26,1,.39,1.56.06.27.1.55.17.83.09.48.18,1,.26,1.49,0,.26.08.54.11.81.06.57.12,1.16.17,1.77v0a7.37,7.37,0,0,1,0,.82,29.3,29.3,0,0,1-.24,5.07l-.18,1.14-.24,1.14c-.09.39-.18.76-.29,1.15s-.23.78-.36,1.16-.17.53-.26.78c-.23.6-.48,1.23-.76,1.85-.2.43-.42.86-.65,1.3s-.48.87-.75,1.3c-.12.22-.24.43-.38.64s-.28.43-.44.65l-.46.65c-.16.22-.31.43-.48.63-.27.35-.52.69-.73,1a21.6,21.6,0,0,0-1.29,2,7.07,7.07,0,0,0-.59,1.16,3.32,3.32,0,0,0-.18.53,1.69,1.69,0,0,0-.1.35.18.18,0,0,0,0,.11s0,0,0,0v0a1.13,1.13,0,0,0,0,.18,1.89,1.89,0,0,0,0,.39c0,.13,0,.25,0,.36a2.41,2.41,0,0,0,.14.43,1.26,1.26,0,0,0,.19.28,0,0,0,0,0,0,0,1.29,1.29,0,0,0,.27.25c.13.09.27.17.41.25a3.87,3.87,0,0,0,.49.19l.48.1c.24.05.49.08.76.11l.56,0c4.44.17,12.14-1.66,15.56.65a5.55,5.55,0,0,1,.55.47,1.59,1.59,0,0,1,.28.36.45.45,0,0,1,.1.14,1.52,1.52,0,0,1,.15.34,1.22,1.22,0,0,1,.1.34,3.88,3.88,0,0,1-.52,2.36,11,11,0,0,1-.93,1.47l-.35.48-.83,1-.83,1-1.14,1.22c-.38.41-.77.83-1.17,1.24l-.61.64c-.4.43-.8.85-1.19,1.29h0c-.39.42-.76.86-1.13,1.27a30.68,30.68,0,0,0-2.06,2.59c-.2.3-.41.61-.59.9s-.4.67-.58,1a10.9,10.9,0,0,0-.52,1.24,4.9,4.9,0,0,0-.2,2.79c.52,2.22,2.17,2.35,4.24,2a6.52,6.52,0,0,0,.72-.14l1.52-.33c.57-.14,1.16-.26,1.75-.37l.12,0a12.2,12.2,0,0,1,2.16-.15,1.72,1.72,0,0,1,.31,0c.17,0,.34,0,.51,0a.13.13,0,0,0,.08,0l.59.14h0a3.4,3.4,0,0,1,.67.25,3.23,3.23,0,0,1,.41.22,5.23,5.23,0,0,1,.52.35l.14.11a2.61,2.61,0,0,1,.24.22,6.3,6.3,0,0,1,1,1.3,5.29,5.29,0,0,1,.39.75,6.16,6.16,0,0,1,.34.86,7.31,7.31,0,0,1,.31,1c.05.17.09.35.14.54.08.37.16.76.23,1.18a31.2,31.2,0,0,1,.36,3.61c.05.93.06,1.89.08,2.9,0,.81,0,1.65.06,2.5s0,1.55.11,2.36c0,.51.08,1,.12,1.53s.11,1.07.17,1.63.16,1.05.27,1.6a9.44,9.44,0,0,0,.18,1,29.56,29.56,0,0,0,1.49,5.05c.19.45.37.9.57,1.37s.58,1.22.92,1.84.7,1.23,1.09,1.85a32.11,32.11,0,0,0,2.77,3.74c.53.62,1.1,1.24,1.72,1.86a46.56,46.56,0,0,0,7,5.77l1.9,1.25c.65.42,1.33.84,2,1.24,1,.62,2.09,1.21,3.22,1.82.56.29,1.15.6,1.74.88s1.19.59,1.81.88l1.91.89,3.26,1.47a.19.19,0,0,1,.08,0c.77.34,1.56.72,2.37,1.09l.29.14c.36.15.72.32,1.07.49,2.22,1,4.59,2.13,7.11,3.28l1.78.8q3.44,1.56,7.26,3.21l2.35,1c1.1.47,2.22.95,3.35,1.41s2.3.93,3.48,1.41l2.93,1.17,1.14.45c.58.23,1.17.44,1.76.66l1.78.68c1.19.45,2.42.9,3.66,1.35.85.31,1.72.62,2.61.92,1.16.42,2.32.82,3.52,1.22.89.31,1.81.61,2.74.9s1.85.61,2.79.9c8.19,2.61,17.17,5.12,27,7.37h.09l.08,0q4,.9,8.1,1.75c2.06.42,4.17.82,6.31,1.23s4.32.77,6.54,1.14q4.43.75,9.07,1.4l4.69.64c3.16.4,6.38.79,9.67,1.13s6.67.66,10.11.93c1.72.14,3.46.26,5.21.39q7.89.56,16.29.83v0h.37v0c7.27-.25,14.23-.65,20.95-1.19l.34,0,2.51-.2h.06l2.5-.22,1.1-.11.45-.05c1.15-.1,2.28-.21,3.4-.34l4.77-.52,1.27-.16c2.38-.28,4.7-.57,7-.9l1.38-.18q4.1-.57,8-1.21c.88-.14,1.75-.28,2.6-.44l2.58-.43c2.87-.5,5.67-1,8.42-1.6s5.43-1.12,8.05-1.71l2.28-.52,4.48-1.07,4.36-1.1c3.56-.95,7-1.91,10.34-2.9,1.33-.39,2.64-.79,3.94-1.2l3-.93.82-.26,1.86-.62,1.83-.61c.72-.23,1.41-.48,2.1-.71l2.06-.71c1.36-.48,2.7-1,4-1.45.66-.23,1.31-.48,1.95-.72l1-.36c.33-.11.64-.23.95-.36q1.9-.72,3.72-1.44c.6-.23,1.21-.48,1.81-.73,1.2-.48,2.38-.94,3.52-1.43l1.71-.69c.56-.24,1.12-.47,1.66-.72,9.38-4,17.13-7.69,23.57-10.62l1.11-.51,1.11-.5c1.3-.57,2.54-1.16,3.72-1.75a71.78,71.78,0,0,0,6.45-3.6c.48-.31,1-.6,1.41-.91s.91-.61,1.35-.92l1.27-.91a43.29,43.29,0,0,0,7.09-6.48c8.51-10,7.5-19.95,7.84-27.36a33.57,33.57,0,0,1,.36-3.61c.08-.42.16-.79.23-1.18a9.4,9.4,0,0,1,.28-1c.06-.17.11-.33.17-.49a4.49,4.49,0,0,1,.17-.44c0-.14.11-.28.17-.42s.19-.39.3-.58a6.44,6.44,0,0,1,.53-.82,4.69,4.69,0,0,1,.46-.54c.16-.16.31-.3.48-.44a2.56,2.56,0,0,1,.53-.35c.12-.08.26-.14.4-.22l.42-.17a4,4,0,0,1,.43-.12,3.54,3.54,0,0,1,.44-.11,4.07,4.07,0,0,1,.6-.06,1.56,1.56,0,0,1,.3,0,8.43,8.43,0,0,1,1.12,0l.79.09c.24,0,.49.08.76.13l.82.15c.77.17,1.55.37,2.26.51a9.41,9.41,0,0,0,1,.18l.34,0a4.9,4.9,0,0,0,1.07,0l.3,0,.48-.11a2.39,2.39,0,0,0,.7-.39s0,0,0,0,.09-.06.14-.12,0,0,0-.05a1.88,1.88,0,0,0,.22-.26c.06-.11.12-.2.18-.33a4,4,0,0,0,.28-.79,5.46,5.46,0,0,0-.45-3.45,8.47,8.47,0,0,0-.49-1c-.11-.17-.21-.34-.31-.51s-.39-.64-.62-1l-.39-.54c-.3-.39-.61-.79-.95-1.19-.2-.25-.4-.48-.62-.73s-.43-.51-.67-.76c-.57-.65-1.17-1.29-1.78-1.94-.42-.42-.81-.85-1.18-1.26-.6-.62-1.18-1.24-1.72-1.84-.36-.4-.7-.79-1-1.18a14.52,14.52,0,0,1-.9-1.15,8.34,8.34,0,0,1-.82-1.25,6.82,6.82,0,0,1-.55-1.18,3.19,3.19,0,0,1-.15-.59,2.92,2.92,0,0,1,0-.5c0-.11,0-.23,0-.34a1.23,1.23,0,0,1,.07-.29c0-.11.06-.2.1-.31s.11-.2.17-.3a3.25,3.25,0,0,1,.3-.37,2.85,2.85,0,0,1,.54-.47c3.4-2.31,11.09-.48,15.54-.65l.6,0c.25,0,.5-.06.73-.11l.48-.1a2.85,2.85,0,0,0,.42-.16,2,2,0,0,0,.48-.28,1.6,1.6,0,0,0,.27-.25,1.71,1.71,0,0,0,.11-.14c0-.06.06-.1.09-.17A.9.9,0,0,0,576,391a1.73,1.73,0,0,0,.05-.42A1.54,1.54,0,0,0,576,390.1Zm18.49-40.83c1.73-8.42,16.5,0,7.21-10.53s-43.62-31.76-39.3-47.58,21.7-35.8,0-142.21S515.2,65.27,504.3,73.6s-58.08,93.06-58.08,93.06c-26.31-17-78.68-13.7-82.17-13.46-3.47-.24-55.82-3.57-82.16,13.46,0,0-47.2-84.72-58.08-93.06s-36.43-31-58.12,75.35-4.35,126.41,0,142.21-30,37-39.28,47.58,5.45,2.11,7.19,10.53-17.89,23.18-10.23,26.33,38.84-1,25.86,9.47-36.45,11.6-13,19-8.7,12.65-7.82,15.82,20,7.38,11.27,21.05-15.6,26.35,8.69,13.71,19.2,6.79,25.49,16c5.44,7.92,27.45,19.84,59.75,28.48,3.35.9,6.82,1.74,10.39,2.56,3.3.78,6.68,1.5,10.19,2.17,2.18.44,4.5.84,6.81,1.26.88.12,1.73.28,2.6.42,7.75,1.31,32.46,2.45,40.75,3.47a108.07,108.07,0,0,0,2,18.08,127,127,0,0,0,9.5,12.92l1,1.21q1.56,1.78,3.09,3.39c.48.5,1,1,1.43,1.45,1.24,1.25,2.48,2.42,3.7,3.5.31.26.62.54.93.79a68.42,68.42,0,0,0,6.11,4.68c.28.21.58.39.87.58,1.52,1,3,1.87,4.44,2.65l1,.5a48.63,48.63,0,0,0,11.08,4.12l.24-.51c2-4.08,3.41-6.42,3.41-6.42l10.95-5.74,8.7,2.28,5.78,9.06h0l.62-.21,1.05-.38s.05,0,.06,0a55,55,0,0,0,7.31-3.44c.32-.19.65-.37,1-.57a59.6,59.6,0,0,0,5.23-3.46c.33-.23.65-.47,1-.73a72.09,72.09,0,0,0,6-5.09c.34-.31.68-.63,1-1a96.64,96.64,0,0,0,7.4-8.08l.93-1.15c.79-1,1.6-2,2.39-3.1.38-.51.77-1,1.14-1.57,1.31-1.8,2.59-3.69,3.9-5.69,0,0,0,0,0-.05a124.15,124.15,0,0,0,1.61-18c9-1.12,39-2.34,47.29-3.78.4-.1.77-.16,1.16-.22q3.25-.56,6.33-1.15c3.28-.65,6.52-1.33,9.69-2.06,3.73-.84,7.36-1.72,10.87-2.67,32.3-8.64,54.32-20.56,59.75-28.48,6.29-9.22,1.19-28.65,25.49-16s17.35,0,8.67-13.71,10.4-17.91,11.3-21.05-31.26-8.44-7.83-15.82,0-8.42-13-19,18.22-6.31,25.87-9.47S592.78,357.69,594.52,349.27Z" transform="translate(333.43 -65.7)"/>
            <path class="cls-8" d="M557.2,393.24c-6.19,4.21,13.23,14.75,11.46,22.14S552.78,406.94,551.9,427c-.34,7.4.67,17.39-7.85,27.34-4.27,5-10.9,9.94-21.29,14.58-11.51,5.16-27.64,13.34-50.24,21a334.46,334.46,0,0,1-32.9,9.19,401.24,401.24,0,0,1-75.38,9.29v0h-.38v0a399.74,399.74,0,0,1-76-9.42l-.17,0c-12.14-2.78-22.93-5.94-32.57-9.17-22.36-7.57-38.35-15.7-49.79-20.81-10.37-4.64-17-9.61-21.29-14.58-8.52-10-7.51-19.94-7.83-27.34-.88-20-15-4.21-16.79-11.57s17.67-17.93,11.49-22.14-26.49,5.28-15.9-8.41,2.63-29.52,2.63-29.52c-20.29-42.11,30.9-41.23,17.86-89.05S182.37,117.09,201.79,95s49.46,54.76,56.51,71.63,11.48,25.26,33.22,15.8c21-9.15,69.23-8.5,72.53-8.44s51.57-.71,72.56,8.44c21.71,9.46,26.13,1.05,33.2-15.8S506.88,72.84,526.31,95s39.3,123.44,26.28,171.28,38.14,46.94,17.84,89.05c0,0-8,15.82,2.65,29.52S563.36,389,557.2,393.24Z" transform="translate(333.43 -65.7)"/>
            <path class="cls-9" d="M557.2,393.24c-6.19,4.21,13.23,14.75,11.46,22.14S552.78,406.94,551.9,427c-.34,7.4.67,17.39-7.85,27.34-4.27,5-10.9,9.94-21.29,14.58-11.51,5.16-27.64,13.34-50.24,21a334.46,334.46,0,0,1-32.9,9.19,401.24,401.24,0,0,1-75.38,9.29v0h-.38v0a399.74,399.74,0,0,1-76-9.42l-.17,0c-12.14-2.78-22.93-5.94-32.57-9.17-22.36-7.57-38.35-15.7-49.79-20.81-10.37-4.64-17-9.61-21.29-14.58-8.52-10-7.51-19.94-7.83-27.34-.88-20-15-4.21-16.79-11.57s17.67-17.93,11.49-22.14-26.49,5.28-15.9-8.41,2.63-29.52,2.63-29.52c-20.29-42.11,30.9-41.23,17.86-89.05S182.37,117.09,201.79,95s49.46,54.76,56.51,71.63,11.48,25.26,33.22,15.8c21-9.15,69.23-8.5,72.53-8.44s51.57-.71,72.56,8.44c21.71,9.46,26.13,1.05,33.2-15.8S506.88,72.84,526.31,95s39.3,123.44,26.28,171.28,38.14,46.94,17.84,89.05c0,0-8,15.82,2.65,29.52S563.36,389,557.2,393.24Z" transform="translate(333.43 -65.7)"/>
            <path class="cls-7" d="M307.75,322.69a13,13,0,1,1-13-13A13,13,0,0,1,307.75,322.69Z" transform="translate(333.43 -65.7)"/>
            <path class="cls-10" d="M364.24,373.53h-.39c-46.35.19-4.36,32.6,0,35.87v.29l.2-.15.19.15v-.29C368.6,406.13,410.59,373.72,364.24,373.53Z" transform="translate(333.43 -65.7)"/>
            <path class="cls-7" d="M420.34,322.69a13,13,0,1,0,13-13A13,13,0,0,0,420.34,322.69Z" transform="translate(333.43 -65.7)"/>
            <path class="cls-8" d="M363.82,444.19l-21.2,8.28,2.73,9,18.47-7.33,18.93,7.33,2.72-9Z" transform="translate(333.43 -65.7)"/>
            <path class="cls-8" d="M309,379.09s-8.29-1-20.62-2.76l-21-2.82L255.51,372c-4-.57-8.14-1-12.25-1.44s-8.2-.89-12.24-1.33l-11.88-1.06L208,367.41c-3.54-.12-6.9-.31-10-.48-3.09,0-5.94-.08-8.46-.15s-4.72,0-6.54,0l-5.74,0s2-.45,5.62-1.16c1.8-.31,4-.86,6.52-1.08s5.39-.64,8.53-.94,6.53-.37,10.12-.49,7.4-.05,11.32,0,8,.3,12.08.59,8.26.69,12.42,1.15,8.29,1,12.35,1.66,8.05,1.3,11.89,2c7.7,1.4,14.82,3,20.89,4.55C301.16,376.22,309,379.1,309,379.09Z" transform="translate(333.43 -65.7)"/>
            <path class="cls-8" d="M309,418.91s-4.33-.09-10.61,0l-5.06.12-5.6.24c-1.94.16-3.94.24-6,.46s-4.07.34-6.11.65-4.08.52-6.08.83-4,.65-5.86,1-3.72.78-5.47,1.17-3.39.76-4.89,1.19l-4.17,1.08c-1.21.4-2.3.7-3.19,1-1.8.5-2.87.75-2.87.75s.84-.66,2.37-1.76c.78-.54,1.71-1.22,2.83-1.93s2.43-1.39,3.87-2.13l2.26-1.17,2.52-1a43.72,43.72,0,0,1,5.53-2,54.63,54.63,0,0,1,6.08-1.58,58.9,58.9,0,0,1,6.4-1.06,64.26,64.26,0,0,1,6.46-.49c2.13-.16,4.24,0,6.26,0a71,71,0,0,1,11,1.38,53,53,0,0,1,7.54,2.08C308.05,418.43,309,418.91,309,418.91Z" transform="translate(333.43 -65.7)"/>
            <path class="cls-8" d="M419.07,379.09s8.29-1,20.61-2.76l21.05-2.82L472.59,372c4-.57,8.14-1,12.24-1.44s8.21-.89,12.25-1.33L509,368.17l11.13-.76c3.53-.12,6.89-.31,10-.48,3.09,0,5.93-.08,8.46-.15s4.72,0,6.54,0l5.73,0s-2-.45-5.62-1.16c-1.8-.31-4-.86-6.52-1.08s-5.39-.64-8.52-.94-6.53-.37-10.13-.49-7.39-.05-11.32,0-8,.3-12.08.59-8.26.69-12.42,1.15-8.29,1-12.35,1.66-8,1.3-11.89,2c-7.7,1.4-14.82,3-20.88,4.55C426.93,376.22,419.07,379.1,419.07,379.09Z" transform="translate(333.43 -65.7)"/>
            <path class="cls-8" d="M419.07,418.91s4.32-.09,10.6,0l5.06.12,5.61.24c1.93.16,3.93.24,6,.46s4.08.34,6.11.65,4.08.52,6.08.83,4,.65,5.87,1,3.72.78,5.46,1.17,3.39.76,4.9,1.19l4.16,1.08c1.21.4,2.3.7,3.2,1,1.8.5,2.86.75,2.86.75s-.84-.66-2.37-1.76c-.77-.54-1.71-1.22-2.82-1.93s-2.43-1.39-3.88-2.13l-2.26-1.17-2.51-1a44.29,44.29,0,0,0-5.53-2,54.8,54.8,0,0,0-6.09-1.58,58.5,58.5,0,0,0-6.4-1.06,64,64,0,0,0-6.46-.49c-2.13-.16-4.24,0-6.26,0a70.74,70.74,0,0,0-11,1.38,52.58,52.58,0,0,0-7.54,2.08C420,418.43,419.07,418.91,419.07,418.91Z" transform="translate(333.43 -65.7)"/>
            <g>
              <path class="cls-8" d="M472.2,183.41s37.07-87.53,50.72-62.8,23.92,51.15,15.86,97.52C538.78,218.13,507.18,179.13,472.2,183.41Z" transform="translate(333.43 -65.7)"/>
              <path class="cls-8" d="M255.9,183.41s-37.08-87.53-50.72-62.8-23.92,51.15-15.86,97.52C189.32,218.13,220.91,179.13,255.9,183.41Z" transform="translate(333.43 -65.7)"/>
            </g>
            <path class="cls-7" d="M492.87,292.91l-.08-2-1.35-1.43c-3.61-3.8-12.68-8.85-49.73-8.85-16.17,0-59.16,1.89-64.62,6.34-4.17,3.4-4.68,17.32-4.31,29H355.32c.36-11.7-.15-25.62-4.31-29-5.46-4.45-48.44-6.34-64.63-6.34-37,0-46.12,5.05-49.72,8.85L235.31,291l-.09,2c-2.75,60.76-.78,61.27,3.95,62.47,2.9.74,45.73,1.89,70.48,1.89h0c31.35,0,34.41-1.46,36.05-2.23,3.07-1.48,6.48-5.21,8.45-21.76,0-.09.3-2.75.59-6.72h18.56c.3,4,.59,6.63.59,6.72,2,16.55,5.4,20.28,8.47,21.76,1.63.77,4.68,2.23,36.05,2.23,24.75,0,67.58-1.15,70.48-1.89C493.66,354.18,495.61,353.67,492.87,292.91Zm-148.2,27.5c-.7,14.68-2.67,22.89-3.94,25.2-1.91.37-8.62,1.14-31.06,1.14h0c-24.87,0-54.64-.91-64.85-1.42-.49-8.05,0-29.51.81-49.45,3.1-1.6,12.71-4.69,40.77-4.69,24.9,0,50.67,2.55,57.47,4.11C344.62,298.81,345.26,308.19,344.67,320.41Zm138.62,24.92c-10.21.51-40,1.42-64.86,1.42-22.43,0-29.15-.77-31.07-1.14-1.27-2.31-3.23-10.52-3.94-25.2-.59-12.22.05-21.6.84-25.11,6.79-1.56,32.55-4.11,57.45-4.11,28.07,0,37.67,3.09,40.77,4.69C483.33,315.82,483.78,337.28,483.29,345.33Z" transform="translate(333.43 -65.7)"/>
          </g>
          <g>
            <path class="cls-8" d="M279.54,721.87H238.83a56.63,56.63,0,0,0-4.85-15c-6.5-12.83-10.86-34-10.76-34.23,3.33-6.76,22.3-25.36,49.48-1.61v.09l.09.07.28.2v.12c0,.11,0,.48,0,2.31,0,1.27,0,3,0,5.1a7,7,0,0,0,0,.92v.48c-.05,1.61,0,3.43.08,5.44V686A138,138,0,0,0,279.54,721.87Z" transform="translate(333.43 -65.7)"/>
            <path class="cls-8" d="M279.83,721.86h-.29A137.93,137.93,0,0,1,273,686v-.23c-.08-2-.13-3.83-.08-5.44v-.49a6.78,6.78,0,0,1,0-.91c0-2.09,0-3.83,0-5.1,0-1.83,0-2.2,0-2.31v-.13a4.17,4.17,0,0,1-.37-.26V671a3.81,3.81,0,0,1,.37.34.52.52,0,0,0,.11.07.21.21,0,0,1,.11.1l0,0c0,.17,0,3-.08,7.36,0,.3,0,.59,0,.9v.49c-.05,1.61,0,3.42.06,5.44v.22c0,.71.06,1.45.11,2.23,0,.11,0,.22,0,.32,0,.61.08,1.23.14,1.85.08,1,.17,2,.27,3,.06.54.11,1.08.18,1.65.13,1.07.27,2.15.42,3.27.08.56.17,1.12.25,1.69v0c.12.89.28,1.79.45,2.72,0,.19.06.38.09.55.16.8.3,1.63.47,2.45s.32,1.64.49,2.46a.06.06,0,0,1,0,0c.28,1.26.57,2.53.88,3.83.2.82.42,1.67.65,2.53.28,1.08.59,2.18.92,3.3s.67,2.25,1,3.4C279.71,721.49,279.77,721.68,279.83,721.86Z" transform="translate(333.43 -65.7)"/>
          </g>
          <g>
            <path class="cls-8" d="M500.16,672.6c.11.24-4.27,21.4-10.75,34.23a56.27,56.27,0,0,0-4.85,15H443.82a136.9,136.9,0,0,0,6.53-35.93v-.22c.08-2,.11-3.84.06-5.44v-.48c0-.31,0-.62,0-.9,0-2.12,0-3.86,0-5.15a21.68,21.68,0,0,0-.05-2.22v-.18a2.43,2.43,0,0,0,.2-.14.53.53,0,0,0,.1-.06l.09-.07V671C477.86,647.24,496.84,665.84,500.16,672.6Z" transform="translate(333.43 -65.7)"/>
            <path class="cls-8" d="M450.69,671v.09l-.09.07a.53.53,0,0,1-.1.06,2.43,2.43,0,0,1-.2.14v.18a21.68,21.68,0,0,1,.05,2.22c0,1.29,0,3,0,5.15,0,.28,0,.59,0,.9v.48c0,1.6,0,3.43-.06,5.44v.22a136.9,136.9,0,0,1-6.53,35.93h-.26a138.15,138.15,0,0,0,6.54-35.93v-.22c.08-2,.11-3.83.06-5.44v-.48c0-.31,0-.6,0-.9-.07-4.39,0-7.19-.1-7.37l.05,0,.09-.09.11-.08.2-.18Z" transform="translate(333.43 -65.7)"/>
          </g>
        </g>
        <path class="cls-7" d="M500.16,672.6c-3.32-6.76-22.3-25.36-49.47-1.61l-.19.16a1.06,1.06,0,0,0-.2.17v.21a21.68,21.68,0,0,1,.05,2.22c0,1.29,0,3,0,5.15,0,.28,0,.59,0,.9v.48c0,1.6,0,3.43-.06,5.44v.22a136.9,136.9,0,0,1-6.53,35.93H287.06c0-.19,0-.36-.05-.54a4.75,4.75,0,0,1,0,.54h-7.5A138,138,0,0,1,273,686v-.24c-.08-2-.13-3.83-.08-5.44v-.48a7,7,0,0,1,0-.92c0-2.09,0-3.83,0-5.1,0-1.83,0-2.2,0-2.31v-.14h0c-.12-.13-.25-.22-.37-.33-27.18-23.75-46.15-5.15-49.48,1.61,0-47.6,1.47-108.61,81.7-145a3.73,3.73,0,0,1,0-.57c-.22-12.09-.55-18.08-.55-18.08s39.83,29.59,59.72,29.59S419.19,509,419.19,509s-.18,6-.4,18.08a4.32,4.32,0,0,1,0,.5C499.2,563.9,500.16,625,500.16,672.6Z" transform="translate(333.43 -65.7)"/>
        <g class="cls-11">
          <g>
            <rect class="cls-12" x="518.63" y="420.31" width="463.78" height="334.95"/>
            <g id="shirt-pattern">
              <rect class="cls-13" x="518.63" y="419.02" width="463.78" height="336.24"/>
              <rect class="cls-13" x="518.63" y="419.02" width="463.78" height="336.24"/>
            </g>
          </g>
        </g>
        <polygon class="cls-14" points="715.96 506.49 712.61 506.49 697.48 476.58 682.1 506.49 678.98 506.49 697.48 472.87 715.96 506.49"/>
        <g class="cls-15">
          <g>
            <path class="cls-16" d="M286.78,721.86h-6.95c-.06-.18-.12-.37-.17-.55-.35-1.15-.7-2.28-1-3.4s-.64-2.22-.92-3.3c-.23-.86-.45-1.71-.65-2.53-.31-1.3-.6-2.57-.88-3.83a.06.06,0,0,0,0,0c-.17-.82-.34-1.64-.49-2.46s-.31-1.65-.47-2.45c0-.17-.06-.36-.09-.55-.17-.93-.33-1.83-.45-2.72v0c-.08-.57-.17-1.13-.25-1.69-.15-1.12-.29-2.2-.42-3.27-.06-.53-.12-1.06-.17-1.57a.19.19,0,0,0,0-.08c-.1-1-.2-2.07-.27-3-.06-.64-.09-1.24-.14-1.85,0-.1,0-.21,0-.32,0-.79-.08-1.52-.11-2.23v-.22c-.09-2-.11-3.83-.06-5.44v-.49c0-.31,0-.6,0-.9.06-4.38.05-7.19.08-7.36,0-.57.06-1.2.09-1.77a595.33,595.33,0,0,1,7.93-71C280.9,633.78,284.59,691.24,286.78,721.86Z" transform="translate(333.43 -65.7)"/>
            <path class="cls-16" d="M287,721.33a2.72,2.72,0,0,1,0-.28c0-.47-.08-.93-.11-1.41l-.09-1.34c-.1-1.38-.19-2.79-.3-4.26-.23-3.29-.46-6.78-.7-10.44-.09-1.24-.18-2.49-.26-3.78a1,1,0,0,0,0-.25.06.06,0,0,0,0-.08,5.85,5.85,0,0,0,0-.71c-.08-1.32-.16-2.65-.25-4,0-.31,0-.64-.06-.95a1.88,1.88,0,0,0,0-.34.28.28,0,0,0,0-.09,3.28,3.28,0,0,0,0-.43c0-.14,0-.28,0-.44,0-.73-.09-1.47-.14-2.2,0-.26,0-.53-.05-.81a.17.17,0,0,1,0-.07c-.13-2-.25-4.08-.36-6.16-.06-1-.12-2.11-.18-3.16s-.13-2.14-.19-3.21-.14-2.41-.2-3.62c-.13-2.14-.24-4.31-.36-6.48,0-.71-.06-1.41-.11-2.12s0-1.17-.08-1.74a.66.66,0,0,1,0-.14c0-.84-.09-1.69-.12-2.54v-.14c0-.45,0-.89-.08-1.34-.05-1-.1-1.9-.14-2.87,0-.38-.05-.77-.05-1.17,0-.56-.06-1.12-.08-1.69a.45.45,0,0,1,0-.11c0-.34-.05-.7-.05-1s0-.61,0-.92,0-.6-.05-.9c-.08-1.61-.14-3.22-.2-4.83,0-.81-.06-1.62-.1-2.44,0-.39,0-.77,0-1.15a.23.23,0,0,0,0-.12c0-.93-.06-1.88-.11-2.82,0-.65,0-1.31-.06-1.94q0-.37,0-.75c-.05-1.21-.08-2.41-.12-3.62,0-.13,0-.27,0-.39,0-.56,0-1.1-.06-1.65,0-.8,0-1.61-.08-2.41v-.33c0-.7-.05-1.4-.06-2.08,0-1.6-.08-3.16-.11-4.73,0-.4,0-.8,0-1.21,0-1.59-.05-3.16-.08-4.7v-.35c0-.22,0-.44,0-.65,0-.73,0-1.46,0-2.18v-1.48a.82.82,0,0,0,0-.22v-.48c0-3.79,0-7.4,0-10.81l-.53,0a604.43,604.43,0,0,0-7.93,71,8.51,8.51,0,0,0,0,.88c0,.25-.05.48-.05.7h0v.14c0,.11,0,.48,0,2.31,0,1.27,0,3,0,5.1a7,7,0,0,0,0,.92v.48c-.05,1.61,0,3.43.08,5.44V686a138,138,0,0,0,6.51,35.91h.56a137.55,137.55,0,0,1-6.55-35.93v-.23c-.08-2-.12-3.82-.08-5.43v-.48a6.78,6.78,0,0,1,0-.9c0-2.11,0-3.85,0-5.12a21,21,0,0,1,.05-2.25,6.93,6.93,0,0,1,0-.89c0-.3,0-.58,0-.86A608.42,608.42,0,0,1,281,602c-.17,35.07,3.37,90.15,5.49,119.92H287A4.75,4.75,0,0,0,287,721.33Z" transform="translate(333.43 -65.7)"/>
          </g>
          <path class="cls-16" d="M450.35,685.72v.22a136.9,136.9,0,0,1-6.53,35.93h-7.49c.09-1.5.22-3.09.33-4.73,0-.67.09-1.36.13-2.06s.1-1.29.14-2c0-.29.05-.57.07-.86s0-.33,0-.5c0-.43.08-.87.11-1.3q.21-3.3.45-6.84v-.09c0-.75.1-1.52.15-2.28s.12-1.8.17-2.72a.5.5,0,0,0,0-.17c0-.31,0-.63.06-.94s.05-.89.08-1.34l.09-1.36c0-.31,0-.62,0-1s.06-.93.09-1.41c.06-1,.12-1.94.19-2.91,0-.38,0-.76.06-1.15.09-1.37.17-2.72.25-4.1a1.09,1.09,0,0,0,0-.18.62.62,0,0,0,0-.19c0-.08,0-.14,0-.22.05-.77.09-1.55.13-2.32v0c0-.21,0-.43,0-.65,0-.39.05-.77.06-1.16v-.05c0-.4.05-.82.08-1.22.08-1.35.16-2.69.23-4.05s.14-2.7.22-4.06c.16-2.83.3-5.68.45-8.52.05-.77.09-1.55.11-2.32v0c0-.22,0-.42,0-.63s0-.45,0-.69a.34.34,0,0,0,0-.15.81.81,0,0,0,0-.16c0-.35,0-.71.07-1.08s0-.44,0-.65v0c.08-1.92.17-3.83.26-5.73.05-.95.1-1.88.14-2.82,0-.39,0-.78,0-1.17.05-1,.1-2.06.13-3.07q0-.72.06-1.44,0-.49,0-1a5.25,5.25,0,0,0,0-.56c0-.42.05-.82.05-1.21v-.12c0-.24,0-.47,0-.7,0-.58.05-1.15.06-1.71a2.3,2.3,0,0,0,0-.37c.11-3.12.2-6.19.29-9.23v-.23c0-.26,0-.51,0-.77s0-.52,0-.76c0-.41,0-.83,0-1.23s0-1,0-1.46,0-.83,0-1.25a2.23,2.23,0,0,0,0-.44c0-.15,0-.31,0-.45,0-.6,0-1.19,0-1.8,0-.43,0-.86,0-1.28,0-1.24,0-2.45.06-3.65,0-.4,0-.77,0-1.18v-2q.08-6.06,0-11.48l.53,0a603.2,603.2,0,0,1,7.92,71c0,.29,0,.57,0,.86s0,.47,0,.72v.21a21.68,21.68,0,0,1,.05,2.22c0,1.29,0,3,0,5.15,0,.28,0,.59,0,.9v.48C450.46,681.88,450.43,683.71,450.35,685.72Z" transform="translate(333.43 -65.7)"/>
          <path class="cls-16" d="M350.48,538.64V721.87h.78V539.41h23.89V721.87h.78V538.64Z" transform="translate(333.43 -65.7)"/>
          <g>
            <circle class="cls-16" cx="697.66" cy="487.46" r="3.9"/>
            <circle class="cls-16" cx="697.66" cy="539.25" r="3.9"/>
            <circle class="cls-16" cx="697.66" cy="591.04" r="3.9"/>
            <circle class="cls-16" cx="697.66" cy="642.83" r="3.9"/>
          </g>
          <g>
            <path class="cls-16" d="M304.33,509s39.82,29.58,59.71,29.58l-18.49,33.62s-40.45-33-40.67-45.12S304.33,509,304.33,509Z" transform="translate(333.43 -65.7)"/>
            <path class="cls-16" d="M419.19,509S383.93,538.57,364,538.57l18.49,33.62s36-33,36.26-45.12S419.19,509,419.19,509Z" transform="translate(333.43 -65.7)"/>
          </g>
        </g>
      </g>
    </g>
  </g>
</svg>
